<?xml version="1.0" encoding="utf-8"?>
<!-- Generator: Adobe Illustrator 22.1.0, SVG Export Plug-In . SVG Version: 6.00 Build 0)  -->
<svg version="1.1" id="Calque_1" xmlns="http://www.w3.org/2000/svg" xmlns:xlink="http://www.w3.org/1999/xlink" x="0px" y="0px"
	 viewBox="0 0 2202 2202" style="enable-background:new 0 0 2202 2202;" xml:space="preserve">
<style type="text/css">
	.st0{fill:url(#SVGID_1_);}
	.st1{fill:url(#SVGID_2_);}
	.st2{fill:url(#SVGID_3_);}
	.st3{fill:url(#SVGID_4_);}
	.st4{fill:#F8F8F8;}
	.st5{fill:#A5A8AB;}
	.st6{fill:#F1F1F1;}
	.st7{fill:#231F20;}
	.st8{fill:#96979B;}
	.st9{fill:#8B8A8F;}
	.st10{fill:#B5B7BB;}
	.st11{fill:url(#SVGID_5_);}
	.st12{fill:#D8DADD;}
	.st13{fill:#CDCFD2;}
	.st14{fill:#C3C4C8;}
	.st15{fill:#D8D8D8;}
	.st16{fill:#B0B2B6;}
	.st17{fill:url(#SVGID_6_);}
	.st18{fill:url(#SVGID_7_);}
	.st19{fill:#EDEEEE;}
	.st20{fill:#FFFFFF;stroke:#000000;stroke-width:6;stroke-miterlimit:10;}
	.st21{stroke:#000000;stroke-width:6;stroke-miterlimit:10;}
	.st22{fill:#FFFFFF;}
	.st23{font-family:'Cocogoose';}
	.st24{font-size:8.6808px;}
</style>
<g>
	<g>
		<radialGradient id="SVGID_1_" cx="1028" cy="1150" r="686.6644" gradientUnits="userSpaceOnUse">
			<stop  offset="0" style="stop-color:#982FFF"/>
			<stop  offset="1" style="stop-color:#B84ECA"/>
		</radialGradient>
		<path class="st0" d="M1693,1262.3c-0.3-0.2-1.5-0.4-2.5-0.4c0.9,0.2,1.7,0.3,2.1,0.4C1692.7,1262.2,1692.8,1262.2,1693,1262.3z"/>
		<radialGradient id="SVGID_2_" cx="1028" cy="1150" r="686.6644" gradientUnits="userSpaceOnUse">
			<stop  offset="0" style="stop-color:#982FFF"/>
			<stop  offset="1" style="stop-color:#B84ECA"/>
		</radialGradient>
		<path class="st1" d="M1296,1659.7c3.1-0.4,3.7-0.4,3.3-0.4C1298.2,1659.5,1297.1,1659.6,1296,1659.7L1296,1659.7z"/>
		<radialGradient id="SVGID_3_" cx="1028" cy="1150" r="686.6644" gradientUnits="userSpaceOnUse">
			<stop  offset="0" style="stop-color:#982FFF"/>
			<stop  offset="1" style="stop-color:#B84ECA"/>
		</radialGradient>
		<path class="st2" d="M2001.4,1306.6c-29.6-41-75.6-60.1-125.4-61.5c-23-0.6-46.1,2.5-68.8,6.1c-10.4,1.6-20.9,3.6-31.3,5.5
			c-5.1,0.9-10.2,1.9-15.3,2.8c-2,0.4-3.9,0.7-5.9,1c-1.5,0.2-3,0.5-4.6,0.7c-3.8,0.6-3.1,0.5,2.3-0.3c-0.4,0.8-10.7,1.2-11.8,1.3
			c-4.8,0.4-9.5,0.7-14.3,0.9c-8.7,0.3-17.5,0.3-26.2-0.3c-2.4-0.2-4.7-0.4-7.1-0.6c0,0-0.1,0-0.1,0c0,0,0.1,0.1,0.1,0.1
			c0,0-0.2-0.1-0.4-0.1c-4.5-0.5-3.7-0.5-2.1-0.4c-3.1-0.6-7.9-1.4-8.8-1.6c-4.4-1-8.8-2.1-13.1-3.5c-1.4-0.5-2.8-0.9-4.2-1.4
			c-0.8-0.3-1.6-0.6-2.3-0.9c-3.4-1.7-6.8-3.4-10-5.4c-1.5-0.9-3-2-4.5-2.9c-0.1,0-0.1-0.1-0.2-0.1c-2.5-2.3-5-4.5-7.3-7
			c-0.1-0.1-0.2-0.3-0.4-0.4c-0.9-1.8-4.1-5.7-4.7-6.6c-0.8-1.3-1.5-2.6-2.2-3.9c-0.4-0.8-0.8-1.6-1.2-2.4c-1.6-3.5-1.5-3.2,0.4,1.1
			c-2.6-2.6-2.8-10-3.7-13.5c-0.1-2.5-0.3-5.1-0.3-7.6c0-2.6,0.2-5.2,0.3-7.8c0-0.4,0-0.7,0-1c0-0.1,0-0.1,0-0.2
			c1.1-5.2,2.2-10.4,3.8-15.5c0.7-2.2,4.6-15.4,2.2-6.8c1.3-4.6,4.4-9.2,6.8-13.3c2.6-4.6,5.6-11.2,9.6-14.8c-6.1,5.4,0,0.1,1.2-1.4
			c1.3-1.5,2.6-3,3.9-4.4c3.9-4.4,8-8.6,12.3-12.6c3.5-3.4,7.2-6.6,10.9-9.8c2.2-1.9,4.5-3.8,6.8-5.7c0.5-0.4,4.2-3.4,5.8-4.6
			c1.4-1.1,3.5-2.7,3.5-2.6c2.4-1.8,4.7-3.5,7.1-5.3c4-2.9,8-5.8,12-8.7c9.6-6.9,19.3-13.7,28.8-20.9c18.9-14.2,37.5-29.1,53.1-46.9
			c33.8-38.5,52.9-84.7,45.1-136.3c-6.8-44.6-34.8-85.9-69.7-113.7c-28.6-22.8-61.1-38.7-95-51.4c-15.2-9.1-30.4-18.1-45.5-27.3
			c-30.9-18.7-61.8-37.4-92.7-56.1c-27.8-16.8-55.7-33.6-85.4-46.9c-34.8-15.5-69.6-25.8-107.6-29.7c-35.8-3.6-71.9-0.2-107.3,5.7
			c-67.4,11.3-131.4,35.7-197,53.6c-18.5,5-37.2,9.6-56.1,13.2c-4.7,0.9-9.4,1.7-14.1,2.5c-1.6,0.3-3.1,0.5-4.7,0.8
			c-1.1,0.2-10.7,2.2-4.8,0.7c5.9-1.4-1.5,0.2-2.4,0.3c-2.7,0.3-5.5,0.6-8.2,0.9c-4.3,0.4-8.6,0.8-12.9,1.1
			c-13.5,0.9-27.1,1.2-40.7,0.5c-0.5-0.1-1-0.2-1.5-0.3c-49.2-8.8-96.1-26.5-144.6-38.4c-49.1-12.1-100.2-18.1-150.2-8.2
			c-46.5,9.2-86,35.1-113.7,73.3c-15.5,21.3-25.2,47.2-27.3,73.5c-2.8,9.9-4.6,19.8-5.3,29.8c-3.7,2.5-7.3,4.8-11.2,7
			c-4.3,2.4-8.8,4.7-13.3,6.7c-0.7,0.3-6,2.5-5.5,2.3c-1.3,0.5-2.7,1.1-4,1.6c-0.9,0.3-1.8,0.6-2.7,1c-20.8-0.4-41.6-3.1-62.3-4.4
			c-47.8-3.2-97,2.5-135,34.1c-32.6,27.1-46.5,70.1-47.2,111.3c-0.8,43.7,12.7,84.9,31.3,123.8c9.6,20.1,20.4,39.7,30.4,59.7
			c4.4,8.8,8.7,17.6,12.6,26.6c0.3,0.9,1.9,4.7,2.2,5.4c0.7,1.8,1.4,3.6,2.1,5.5c2.3,6.4,4.5,12.9,6.3,19.4
			c1.3,4.7,2.5,9.4,3.4,14.2c0.6,2.9,1.1,5.8,1.6,8.7c-1.5-8.6,0.1,1.2,0.2,2.5c1,11,1.1,22.2,0.7,33.2c-0.9,23.5-4.2,46.8-6.2,70.2
			c-4.1,47.7-0.3,97.7,28.7,137.6c28.7,39.5,70.9,65.5,110.3,93c44,30.8,88,61.5,132,92.3c77.2,53.9,155.1,113.8,247.4,139.2
			c92.7,25.4,186.1,4.8,274.3-26.9c44-15.8,87.3-33.6,131.8-48.3c21-6.9,42.3-13.2,63.9-18.1c10.7-2.4,21.5-4.5,32.4-6.4
			c5.9-1,11.8-1.9,17.7-2.7c-0.1,0-0.1,0-0.2,0c0.1,0,0.2,0,0.2,0c0,0,0.1,0,0.1,0c0.8-0.1,2.7-0.3,3.2-0.4c2.8-0.3,5.6-0.7,8.4-1
			c180.2-20.1,371.6,24.1,544.3-46.6c79.3-32.5,161.8-92.2,175-183.3C2033,1386.7,2026.6,1341.5,2001.4,1306.6z M606.3,808.9
			c0.2-1.3,0.4-2.8,0.3-3.9c0-0.1,0-0.1,0-0.2C607.1,806.9,606.7,808.5,606.3,808.9z M1347.5,632c0.7,0.1,1.5,0.2,2.2,0.3
			c0.1,0,0.3,0,0.4,0.1c7.2,1.3,14.3,2.7,21.4,4.4c-8.9-1.7-17.8-3.3-26.7-4.7c-1.1-0.2-2.3-0.4-3.4-0.5c0.5,0,0.9,0.1,1.4,0.1
			C1344.4,631.7,1346,631.8,1347.5,632z M1154.3,1499.2c-0.4,0.9-0.8,1.8-1.2,2.6c0,0,0,0,0,0c0,0-0.1-0.1-0.1-0.1
			c0.3-0.6,0.8-1.7,1.6-3.2C1154.5,1498.7,1154.4,1499,1154.3,1499.2z M1401.9,1222.9c-0.2-1.1-0.5-2.1-0.7-3.2
			c0.8,0.1,1.7,0.1,2.5,0.1C1403.2,1220.8,1402.5,1221.9,1401.9,1222.9z M1507.4,1479.9c-0.9,0.1-1.7,0.1-2.6,0.2
			c0.6-1,1.2-2.1,1.8-3.1c0.6,0.9,1.3,1.8,1.9,2.8C1508.1,1479.9,1507.7,1479.9,1507.4,1479.9z M1792.4,1387.8c-0.1,0-0.2,0-0.4,0
			c0.6-0.7,1.2-1.3,1.8-1.9C1793.4,1386.5,1792.9,1387.2,1792.4,1387.8z M1822.5,1458.2c0.4,0,0.8,0,1.1,0c0.6,0.2,0.7,0.2,0.5,0
			c0.3,0,0.7,0,1,0C1828.3,1458.3,1827.5,1459.9,1822.5,1458.2z"/>
	</g>
	
		<radialGradient id="SVGID_4_" cx="1031.1564" cy="1577.04" r="499.9955" gradientTransform="matrix(1 0 0 8.208390e-02 0 1447.5905)" gradientUnits="userSpaceOnUse">
		<stop  offset="0" style="stop-color:#982FFF"/>
		<stop  offset="1" style="stop-color:#7B26CE;stop-opacity:0"/>
	</radialGradient>
	<ellipse class="st3" cx="1031.2" cy="1577" rx="568.4" ry="56.9"/>
	<g>
		<path class="st4" d="M1778.1,429.5c-0.3-0.3-0.6-0.6-0.9-0.9C1778,428.4,1778.3,428.7,1778.1,429.5z"/>
		<path class="st5" d="M903.6,1518.1c-0.4-0.1-0.7-0.2-0.9-0.3c0,0,0,0,0.1-0.1C902.9,1517.8,903.2,1517.9,903.6,1518.1z"/>
		<path class="st6" d="M1390.8,1308.2c-1.6,0.1-3.3,0.1-4.9,0.1c-271.6,0-543.3,0-814.9,0.1c-4.3,0-5.3-1-5.3-5.3
			c0.1-174.9,0.1-349.8,0-524.7c0-4.4,1.2-5.3,5.4-5.3c249,0.1,498.1,0.1,747.1,0.1c1.5,0,3,0.2,4.4,0.3c-0.5,2.7-2,5-3.3,7.3
			c-9.1,15.6-18.1,31.2-27.3,46.7c-11.9,19.8-24,39.6-35.1,59.9c-3.6,6.6-8.8,12.6-8.9,20.7c-0.1,13-0.1,26,0,39.1
			c0,4.6,2.2,6.2,6.6,5.1c5.6-1.4,11.3-2.8,16.8-4.4c5.1-1.4,6.2-0.8,6.2,4.5c0,15.3,0,30.5,0,45.8c0,7,1.6,8.3,8.3,6.8
			c4.2-0.9,8.4-1.7,12.6-2.7c3-0.7,4.2,0.4,4.2,3.4c0,4.3,0,8.7,0,13c0,10.6,0,21.3,0,31.9c0,5.9,2.2,7.4,7.5,5.2
			c2.5-1,5.3-1.1,7.8-1.8c5.2-1.5,5.5,1,5.4,5c-0.1,12.3,0,24.5,0,36.8c0,8,0,8,8.1,7c1.2-0.1,2.5,0.2,3.6-0.2
			c4.2-1.6,4.6,0.8,4.6,4c0,12-0.1,23.9,0,35.9c0,4.7,1.6,6.2,6.2,6.1c1.5,0,2.9-0.4,4.4-0.7c4.3-0.8,5.5,0.2,5.5,4.5
			c0,10.9,0,21.9,0,32.8c0,5.2,1.2,6.6,6.2,6.5c3.6,0,4.7,1.4,4.6,4.8c-0.1,10.8-0.1,21.6,0,32.3c0,4.9,1.3,5.8,6.1,4.8
			c4.8-1,5.6-0.4,5.6,4.5c0,9.9,0,19.8,0,29.6c0,4.4,2.1,6.3,6.1,5.7c5.6-0.8,5.4-0.8,5.6,5
			C1390.2,1288.2,1389,1298.2,1390.8,1308.2z"/>
		<path class="st6" d="M1322.6,773.5c0,0-39.1,300,100.2,534.8s-553.5-113.1-553.5-113.1L1089,749.7L1322.6,773.5z"/>
		<path class="st7" d="M1559.7,883.7c0-1.3,0.1-2.7,0.2-4c0-1.2-0.1-2.4-0.1-3.6c0-38.5,0.1-77-0.1-115.5c0-9.6-4.1-17.3-12-23
			c-7.2-5.2-15.4-6-23.7-6c-321.2-0.1-642.4-0.1-963.7-0.1c-1.5,0-3,0-4.5,0c-19.3,0.1-33.6,12.6-33.5,34
			c0.5,136.1,0.3,272.3,0.3,408.4c0,2-0.1,3.9-0.2,5.8c0.1,1.6,0.2,3.3,0.2,4.9v155.5c0,3.7,0.1,7.5,0.2,11.2l29.6,0.2
			c47.6,0,95.3,0,142.9,0h127.6c21.9,0,43.7,0,65.6,0H990c41.3,0,82.7,0,124,0c1,0,2.1-0.1,3.1-0.1c74.9,0,149.8,0,224.7,0
			c1,0,2.1,0.1,3.1,0.1c32.9,0,65.9,0,98.8,0c29.3,0,58.7-0.1,88-0.2c9.3,0,18.6-0.1,27.8-0.1c0.1-0.9,0.1-1.7,0.2-2.6
			c0-1.3-0.1-2.7-0.1-4C1559.7,1191,1559.7,1037.4,1559.7,883.7z M1516.7,1303.4c0,4.1-1,5.1-5.1,5.1c-38.8-0.2-77.6-0.1-116.3-0.1
			c-1.5,0-3-0.1-4.5-0.1c-1.6,0.1-3.3,0.2-4.9,0.2c-271.6,0-543.3,0-814.9,0.1c-4.3,0-5.3-1-5.3-5.3c0.1-174.9,0.1-349.8,0-524.7
			c0-4.4,1.2-5.3,5.4-5.3c249,0.1,498.1,0.1,747.1,0.1c1.5,0,3,0.2,4.4,0.3c1.6-0.1,3.3-0.3,4.9-0.3c61.4,0,122.8,0,184.2-0.1
			c4.1,0,5.1,1.1,5.1,5.1C1516.6,953.3,1516.6,1128.3,1516.7,1303.4z"/>
		<path class="st8" d="M902.8,1517.7c0.1,0.1,0.4,0.3,0.8,0.4C903.2,1518,902.9,1517.9,902.8,1517.7
			C902.7,1517.7,902.8,1517.7,902.8,1517.7z"/>
		<path class="st8" d="M1555.3,1425.1c2.1-3.8,3.1-8,4.3-12.2c0.6,4.8-0.6,9.2-3.3,13.3C1556,1425.9,1555.6,1425.5,1555.3,1425.1z"
			/>
		<path class="st9" d="M1555.3,1425.1c0.3,0.4,0.7,0.7,1,1.1c-1.5,2.3-1.8,5.8-5.5,6.1C1551.5,1429.4,1554,1427.7,1555.3,1425.1z"/>
		<path class="st10" d="M978.3,1559c-0.9,0.2-1.9-0.1-2.6,0.8c-1.8,0.1-3.7,0.1-5.5,0.2c-4.3,0-8.6,0.1-12.9-0.1
			c-6.2-0.3-12.4,0.7-18.5-0.7c-0.1-2.2-1.7-3.6-3.3-4.6c-10.6-7-21.7-12.6-34.8-13.7c-0.4,0-1-0.1-1.6-0.1c-0.2,0-0.5,0-0.7-0.1
			c-0.2,0-0.4,0-0.6-0.1c-2.4-0.2-5.6-0.5-8.6-0.7c-0.3,0-0.6,0-0.9-0.1c2.6-3.9,5.5-7.8,8.7-11.8l-1.8-0.2c0.6,0,1.3,0.1,1.9,0.1
			c2.5,0.2,5.2,0.4,8,0.6c0,0,0.1,0,0.1,0c4.3,0.4,8.9,1,13.4,1.6c8.7,1.2,17.4,2.7,24.5,4.4c0.5,0.1,0.9,0.2,1.4,0.3
			c5.3,1.3,10.9,2,16,4C969.5,1542.7,974.2,1550.7,978.3,1559z"/>
		<path class="st10" d="M889.3,1540.1c-0.4,0.3-0.8,0.6-1.2,0.9C888.6,1540.7,888.9,1540.4,889.3,1540.1z"/>
		<path class="st5" d="M900.1,1528.4c-0.3,0.3-0.6,0.6-0.9,1C899.6,1529.1,899.8,1528.7,900.1,1528.4z"/>
		<path class="st4" d="M1390.8,1308.2c-1.8-9.9-0.6-20-0.9-30c-0.2-5.8,0-5.8-5.6-5c-3.9,0.6-6-1.3-6.1-5.7c-0.1-9.9,0-19.8,0-29.6
			c0-4.9-0.8-5.5-5.6-4.5c-4.8,1-6,0.1-6.1-4.8c-0.1-10.8-0.1-21.6,0-32.3c0-3.4-1-4.8-4.6-4.8c-5,0.1-6.2-1.4-6.2-6.5
			c0-10.9,0-21.9,0-32.8c0-4.3-1.3-5.2-5.5-4.5c-1.5,0.3-2.9,0.7-4.4,0.7c-4.7,0.1-6.2-1.4-6.2-6.1c-0.1-12,0-23.9,0-35.9
			c0-3.2-0.4-5.6-4.6-4c-1.1,0.4-2.4,0.1-3.6,0.2c-8.1,1-8.1,1-8.1-7c0-12.3-0.1-24.5,0-36.8c0-3.9-0.2-6.5-5.4-5
			c-2.5,0.7-5.3,0.8-7.8,1.8c-5.3,2.2-7.5,0.8-7.5-5.2c-0.1-10.6,0-21.3,0-31.9c0-4.3,0-8.7,0-13c0-2.9-1.2-4.1-4.2-3.4
			c-4.2,1-8.4,1.8-12.6,2.7c-6.7,1.5-8.3,0.2-8.3-6.8c0-15.3,0-30.5,0-45.8c0-5.3-1-5.9-6.2-4.5c-5.6,1.6-11.2,3-16.8,4.4
			c-4.5,1.1-6.6-0.5-6.6-5.1c0-13-0.1-26,0-39.1c0.1-8.1,5.3-14.1,8.9-20.7c11.1-20.3,23.2-40,35.1-59.9
			c9.3-15.5,18.3-31.1,27.3-46.7c1.3-2.3,2.8-4.6,3.3-7.3c1.6-0.1,3.3-0.3,4.9-0.3c61.4,0,122.8,0,184.2-0.1c4.1,0,5.1,1.1,5.1,5.1
			c-0.1,175.1-0.1,350.1,0,525.2c0,4.1-1,5.1-5.1,5.1c-38.8-0.2-77.6-0.1-116.4-0.1C1393.8,1308.3,1392.3,1308.2,1390.8,1308.2z"/>
		
			<radialGradient id="SVGID_5_" cx="1041.1986" cy="1400.804" r="368.2945" gradientTransform="matrix(1 0 0 0.7488 0 351.9453)" gradientUnits="userSpaceOnUse">
			<stop  offset="0" style="stop-color:#656565"/>
			<stop  offset="1" style="stop-color:#CFCFCF"/>
		</radialGradient>
		<path class="st11" d="M1531.8,1351.4c-29.3,0.1-58.7,0.1-88,0.2c0.9,7.1,1.4,14.3,1.9,21.4c0.1,2.4,0.3,4.8,0.4,7.2
			c0.1,2.4,0.2,4.8,0.4,7.2c-0.1-2.4-0.2-4.8-0.4-7.2c-0.1-2.4-0.2-4.8-0.4-7.2c-0.4-7.2-0.9-14.3-1.9-21.4c-32.9,0-65.9,0-98.8,0
			c-1-0.1-2.1-0.2-3.1-0.2c-74.9,0-149.8,0-224.7,0c-1,0-2.1,0.1-3.1,0.1c-41.3,0-82.7,0-124,0c-33.9,0-67.7,0-101.6,0
			c-21.9,0-43.7,0-65.6,0c-42.5,0-85.1,0-127.6,0c-47.6,0-95.3,0-142.9,0c-0.7,9,0.8,17.9,1.1,26.8c0.1,4.9,0.4,9.8,0.8,14.7
			c1,12.7,2.4,25.5,2.6,38.3c0,1.5,0.2,3.1,0.4,4.6c-0.2-1.5-0.4-3-0.4-4.6c-0.2-12.8-1.6-25.5-2.6-38.3c-0.4-4.9-0.6-9.8-0.8-14.7
			c-0.3-8.9-1.8-17.8-1.1-26.8l-29.6-0.2c0,21.4-0.1,42.8,0,64.2c0,1.2,0.3,2.4,0.6,3.5c3.9,14.8,16.2,24.1,31.7,24.1
			c125.2,0,250.4,0,375.6,0c1.7,0,3,0,3.9,0.1l0.6-0.1c0,0,5.4-0.2,6.4,6.9c68.5,0,137,0,205.6,0c0.4-3.1,1.7-4.8,3-5.7
			c0.4-0.7,1.3-1,2.8-1.1c0,0,0.1,0,0.1,0c0.2,0,0.3,0,0.5,0h0c0.6,0,1.4,0,2.2,0h370.4c1.5,0,3,0,4.5,0c7.4-0.2,13.6-3.1,19-8
			c0.8-0.8,2.1-1.4,1.1-2.9c-0.4,0.1-0.8,0.2-1.1,0.3c0.3-0.2,0.7-0.3,1.1-0.4c0,0,0,0,0,0c0.7-2.9,3.2-4.7,4.5-7.2
			c2.1-3.8,3.1-8,4.3-12.2c0-20.5,0.1-41.1,0.1-61.6C1550.4,1351.4,1541.1,1351.4,1531.8,1351.4z M557.7,1438.9
			c0.4,1.4,1.1,2,2.4,2.3C558.8,1440.9,558.1,1440.3,557.7,1438.9z M890.3,1441.2c1.2,0,2.4,0,3.6,0c1.1,0,2.1,0,3.2,0
			c-1.1,0-2.1,0-3.2,0C892.7,1441.2,891.5,1441.2,890.3,1441.2z M1033.9,1441.3c-3.1,0-6.3,0-9.4,0c7.4,0,14.8,0,22.2,0
			c9,0,18.1,0,27.1,0c-9,0-18,0-27.1,0C1042.4,1441.3,1038.1,1441.3,1033.9,1441.3z M1337.2,1441.3c3.4,0,6.7,0,10.1,0
			c0,0,0,0,0.1,0c0,0-0.1,0-0.1,0C1343.9,1441.3,1340.5,1441.3,1337.2,1441.3z M1348.9,1441.3c0.5,0,1-0.1,1.5-0.1
			c28.3,0,56.6,0,84.9,0c-28.3,0-56.6,0-84.9,0C1349.9,1441.2,1349.4,1441.2,1348.9,1441.3z M1494.7,1441.2c12,0,24,0,36.1,0
			c2.6,0,5.1-0.5,7.4-1.4c-2.3,0.9-4.8,1.4-7.4,1.4C1518.7,1441.3,1506.7,1441.2,1494.7,1441.2z M1546.4,1435.3
			c-1.4,1-2.8,1.9-4.2,2.8C1543.6,1437.2,1545,1436.3,1546.4,1435.3c0.6-0.4,1.1-0.9,1.6-1.4
			C1547.5,1434.3,1547,1434.9,1546.4,1435.3z"/>
		<path class="st12" d="M-170.2,1104.9c29.3-0.1,58.7-0.1,88-0.2c9.3,0,18.6-0.1,27.8-0.1c0,20.5-0.1,41.1-0.1,61.6
			c-1.2,4.1-2.2,8.3-4.3,12.2c-1.3,2.5-3.8,4.3-4.5,7.2c0,0,0,0,0,0c-1.9,0.3-3,1.9-4.4,2.9c-4.7,3.5-9.8,5.9-15.6,6
			c-27.2,0.1-54.4,0-81.5-0.1c1.2-3.5-0.2-7,0-10.5c0.3-7.3-0.4-14.6-1.1-21.8C-168.1,1143.1-167.7,1123.9-170.2,1104.9z"/>
		<path class="st9" d="M-64.4,1188.5c-5.4,4.9-11.6,7.8-19,8c-1.5,0.1-3,0-4.5,0h-370.4c-0.8,0-1.6,0-2.2,0h0c-0.2,0-0.4,0-0.5,0
			c0,0-0.1,0-0.1,0c-1.5,0.1-2.4,0.4-2.8,1.1c-1.3,1-2.6,2.7-3,5.7c-68.5,0-137,0-205.6,0c-1-7.1-6.4-6.9-6.4-6.9l-0.6,0.1
			c-1-0.1-2.3-0.1-3.9-0.1c-125.2,0-250.4,0-375.6,0c-15.5,0-27.8-9.3-31.7-24.1c-0.3-1.1-0.6-2.3-0.6-3.5c0-21.4,0-42.8,0.1-64.2
			l29.6,0.2c-0.7,9,0.8,17.9,1.1,26.8c0.1,4.9,0.4,9.8,0.8,14.7c1,12.7,2.4,25.5,2.6,38.3c0,2.1,0.4,4.1,0.6,6.2
			c0.3,3.2,1.7,3.8,4.6,3.8c46.2-0.1,92.4-0.1,138.6-0.1c42.5,0,85.1,0,127.6,0c21.9,0,43.7,0,65.6,0c33.9,0,67.7,0,101.6,0
			c6.4,0,12.8,0,19.2,0.1c6.4,0,12.8,0,19.2,0c4.3,0,8.5,0,12.8,0c24.3,0,48.5-0.1,72.8-0.1c1,0,2.1,0.1,3.1,0.1
			c74.9,0,149.8,0,224.7,0.1c1.1,0,2.1-0.1,3.1-0.1c32.9,0,65.9,0,98.8,0c27.2,0,54.4,0.1,81.5,0.1c5.9,0,11-2.5,15.6-6
			c1.4-1,2.5-2.6,4.4-2.9C-62.3,1187.1-63.5,1187.8-64.4,1188.5z"/>
		<path class="st13" d="M-263.6,1194.5c-1,0-2.1,0.1-3.1,0.1c-74.9,0-149.8,0-224.7-0.1c-1,0-2.1-0.1-3.1-0.1
			c-0.7-2.6,0.6-5.1,0.3-7.9c-0.7-8.1-2.7-16.1-2.2-24.4c0.2-3.4,0.3-6.9-0.1-10.3c-2.2-15.6-2-31.4-3.4-47c1,0,2.1-0.1,3.1-0.1
			c74.9,0,149.8,0,224.7,0c1,0,2.1,0.1,3.1,0.2c0.3,1.5,0.8,2.9,0.8,4.4c0.6,17.4,3,34.6,2.7,52c0,3.6,0.9,7.1,1.1,10.6
			C-263.8,1179.4-261.4,1186.9-263.6,1194.5z"/>
		<path class="st8" d="M-913.3,1194.5c-46.2,0-92.4,0-138.6,0.1c-2.9,0-4.3-0.6-4.6-3.8c-0.2-2.1-0.5-4.1-0.6-6.2
			c-0.2-12.8-1.6-25.5-2.6-38.3c-0.4-4.9-0.6-9.8-0.8-14.7c-0.3-8.9-1.8-17.8-1.1-26.8c47.6,0,95.3,0,142.9,0
			c-0.4,5.4-1.6,10.9,0.5,16.3c0.4,1.1-0.3,2-0.7,2.9c-0.8,1.6-1.1,3.3-0.5,4.8c3.8,8.8,1.1,18.4,3.3,27.5c1.1,4.3,0.9,8.8,0.1,13.2
			c-0.2,1.3,0.1,2.7,0.3,4C-915.1,1180.6-915,1187.6-913.3,1194.5z"/>
		<path class="st5" d="M-913.3,1194.5c-1.7-6.9-1.8-14-2.4-21c-0.1-1.3-0.5-2.7-0.3-4c0.8-4.4,1-8.9-0.1-13.2
			c-2.2-9,0.4-18.6-3.3-27.5c-0.6-1.5-0.3-3.2,0.5-4.8c0.5-0.9,1.2-1.8,0.7-2.9c-2.1-5.4-0.9-10.8-0.5-16.3c42.5,0,85.1,0,127.6,0
			c0.1,2.1-1.3,3.9-0.8,6.2c1.4,5.7,1.6,11.4,1.8,17.3c0.2,5.3,0.3,10.8,1,16c2.1,16.7,1.3,33.5,3.4,50.2
			C-828.2,1194.5-870.8,1194.5-913.3,1194.5z"/>
		<path class="st14" d="M-500,1104.9c1.5,15.6,1.3,31.4,3.4,47c0.5,3.4,0.3,6.9,0.1,10.3c-0.5,8.2,1.5,16.2,2.2,24.4
			c0.2,2.7-1,5.2-0.3,7.9c-24.3,0-48.5,0.1-72.8,0.1c-17.1,0-34.1-0.1-51.2-0.1c-0.1-6.4-0.7-12.8-1.2-19.1
			c-0.5-5.5-0.3-11-0.9-16.5c-1.9-15-2.6-30.2-3.2-45.3c-0.1-2.9,1.4-5.8-0.1-8.7C-582.6,1104.9-541.3,1104.9-500,1104.9z"/>
		<path class="st10" d="M-624,1104.9c1.5,2.9,0,5.8,0.1,8.7c0.6,15.1,1.3,30.3,3.2,45.3c0.7,5.5,0.5,11,0.9,16.5
			c0.5,6.3,1.1,12.7,1.2,19.1c-33.9,0-67.7,0-101.6,0c0-4.5,0.4-9-0.1-13.4c-1.9-17-3.3-34-3.5-51.1c0-3-0.7-5.9-1.1-8.8
			c-0.8-5.3-1.9-10.8-0.7-16.2C-691.7,1104.9-657.8,1104.9-624,1104.9z"/>
		<path class="st15" d="M-263.6,1194.5c2.2-7.6-0.2-15.1-0.7-22.6c-0.2-3.5-1.2-7-1.1-10.6c0.2-17.4-2.1-34.7-2.7-52
			c-0.1-1.5-0.5-2.9-0.8-4.4c32.9,0,65.9,0,98.8,0c2.5,19,2.1,38.2,4.2,57.2c0.8,7.2,1.5,14.5,1.1,21.8c-0.2,3.5,1.2,7,0,10.5
			C-197.7,1194.4-230.7,1194.4-263.6,1194.5z"/>
		<path class="st16" d="M-725.5,1104.9c-1.2,5.5-0.2,10.9,0.7,16.2c0.5,2.9,1.1,5.8,1.1,8.8c0.1,17.1,1.6,34.1,3.5,51.1
			c0.5,4.4,0.1,9,0.1,13.4c-21.9,0-43.7,0-65.6,0c-2.2-16.7-1.4-33.5-3.4-50.2c-0.7-5.3-0.8-10.7-1-16c-0.2-5.8-0.4-11.6-1.8-17.3
			c-0.5-2.2,0.9-4.1,0.8-6.2C-769.3,1104.9-747.4,1104.9-725.5,1104.9z"/>
		<path class="st9" d="M884,1551.1c-0.2-0.1-0.5-0.2-0.7-0.2c0.3-1.1,0.5-2.3,0.8-3.4C885.2,1548.7,885,1549.9,884,1551.1z"/>
		<path class="st9" d="M964.8,1561.8c-12.3,0-24.6,0-36.9,0c-10.7,0-21.4-0.1-32-1.8c-3.9-0.6-7.9-1.3-10.3-6
			c17.6,7.9,35.6,4.2,53.2,5.2c6.1,1.4,12.4,0.5,18.5,0.7c4.3,0.2,8.6,0.1,12.9,0.1c0,0.6,0,1.1,0,1.7
			C968.4,1561.7,966.6,1561.7,964.8,1561.8z"/>
		<g>
			<linearGradient id="SVGID_6_" gradientUnits="userSpaceOnUse" x1="1050.9656" y1="1455" x2="1050.9656" y2="1561.2308">
				<stop  offset="0" style="stop-color:#656565"/>
				<stop  offset="1" style="stop-color:#CFCFCF"/>
			</linearGradient>
			<path class="st17" d="M1287.4,1556.4c-6.1-2.7-12.6-3.2-19.1-4.3c-10.7-1.9-21.4-3.6-32.2-4.8c-3.9-0.4-7.8-0.8-11.7-1.2
				c-4.5-0.4-9.1-0.9-13.6-1.4c-3.6-0.4-4.6,1.3-4.3,4.4c-0.3,0-0.6,0.1-1,0.1c-0.2-0.3-0.4-0.7-0.5-1.1c0,0,0,0,0,0
				c-1.3-2.7-2.9-5.3-4.7-8.1c0,0,0,0,0,0c-2.1-3.1-4.4-6.3-6.9-9.5c0,0,0,0,0,0c-1.2-1.5-2.3-3-3.6-4.5c0,0,0,0,0,0
				c-2-2.4-4-4.9-6.1-7.4c0,0,0,0-0.1-0.1c-2.8-3.3-5.6-6.7-8.4-10.1c0,0-0.1-0.1-0.1-0.1c-4.4-5.4-8.7-11-12.6-16.8h-8
				c2.7,0,5.4,0,8,0c-2-2.9-3.8-5.9-5.5-8.9c0,0,0,0,0-0.1c-1-1.8-1.9-3.5-2.8-5.3c-0.5-0.9-0.9-1.8-1.3-2.7c-0.3-0.7-0.6-1.3-0.9-2
				c-0.6-1.5-1.2-2.9-1.7-4.3c-0.4-1.1-0.8-2.2-1.1-3.3c0-0.1-0.1-0.2-0.1-0.3c-1.1-0.1-2.2-0.1-3.4-0.1c-68.8,0-137.6,0-206.4,0
				c0,0.1-0.1,0.3-0.1,0.4c-0.3,1-0.7,2.1-1.1,3.2c-0.5,1.3-1,2.6-1.6,4c0,0.1-0.1,0.2-0.1,0.3c-0.3,0.6-0.5,1.3-0.8,1.9
				c-0.4,0.9-0.8,1.8-1.3,2.7c-0.9,1.8-1.8,3.6-2.8,5.4c18.2,0,39.8,0.1,57.9,0.1c-18.6,0-39.6,0-58,0c-1.7,3-3.5,6-5.5,8.9
				c32.2,0,70,0.1,102.5,0.1c-32,0-70.6,0-102.6,0c-3.9,5.8-8.2,11.4-12.6,16.8c-0.3,0.4-0.6,0.7-0.9,1.1c-2.5,3-4.9,6-7.4,8.9
				c1.8,0.3,4.1,0.6,5.8,0.9c-1.8-0.2-4.1-0.5-5.9-0.8c-2.7,3.3-5.4,6.5-7.9,9.6c-0.7-0.1-1.3-0.1-1.9-0.1l1.8,0.2l3.1,0.3
				c1.7,0.1,3.3,0.1,5,0.3c0,0,0.1,0,0.1,0c0.7,0,1.3,0.1,1.9,0.1c0.8,0.1,1.6,0.1,2.3,0.2c2.1,0.2,4.3,0.4,6.4,0.7
				c0.6,0.1,1.2,0.1,1.8,0.2c0.9,0.1,1.7,0.2,2.6,0.3c0.4,0.1,0.8,0.1,1.1,0.2c0.6,0.1,1.3,0.2,1.9,0.3c0.1,0,0.3,0,0.4,0.1
				c0.8,0.1,1.7,0.3,2.5,0.4c0.6,0.1,1.2,0.2,1.7,0.3c0.5,0.1,1.1,0.2,1.6,0.3c0.2,0,0.5,0.1,0.7,0.1c1.1,0.2,2.1,0.4,3.2,0.6
				c1.5,0.3,3,0.6,4.5,0.9c0.7,0.2,1.4,0.3,2.2,0.5c0.5,0.1,1.1,0.2,1.6,0.4c0.5,0.1,0.9,0.2,1.3,0.3c0.5,0.1,0.9,0.2,1.4,0.3
				c5.3,1.3,10.9,2,16,4c9.1,3.6,13.8,11.7,17.9,20c3.9-0.2,7.8-0.3,11.7-0.4c-3.9,0.1-7.8,0.2-11.7,0.4c-0.9,0.2-1.9-0.1-2.6,0.8
				c33.2,0.5,66.4,0.6,99.6,0.3c-33.2,0.2-66.4,0.2-99.6-0.3c-1.8,0.1-3.7,0.1-5.5,0.2c0,0.6,0,1.1,0,1.7
				c12.4,0.2,24.9,0.3,37.3,0.4c-12.4-0.1-24.9-0.2-37.3-0.4c-1.8,0-3.6,0.1-5.4,0.1c-12.3,0-24.6,0-36.9,0c0,0,0,0,0,0
				c-10.7,0-21.4-0.1-32-1.8c-3.8-0.6-7.9-1.3-10.3-6c17.6,7.9,35.6,4.2,53.2,5.2c-0.1-2.2-1.7-3.6-3.3-4.6
				c-10.6-7-21.7-12.6-34.8-13.7c-0.4,0-1-0.1-1.6-0.1c-0.2,0-0.5,0-0.7-0.1c-0.2,0-0.4,0-0.6-0.1c-2.7-0.2-5.9-0.5-8.6-0.7
				c-0.3,0-0.6,0-0.9-0.1c-1.3,1.9-2.4,3.8-3.5,5.6c-6,0.6-13.1,1.4-19.1,1.8c-0.2,0-0.4,0-0.6,0.1c-16,1.2-31.8,3.9-47.3,8.2
				c-2.6,0.7-5.2,1.4-7.2,3.5c-1.7,1.8-1.9,3.3,0.6,4.6c2.8,1.5,5.6,2.8,8.7,3.5c15.7,3.5,31.6,5.2,47.5,6.9
				c19.2,2,38.5,3.6,57.8,4.6c16.1,0.9,32.2,1.1,48.3,1.9c13,0.6,26,0.7,39,0.9c39.4,0.4,78.9,0.7,118.3-1.5
				c10.1-0.6,20.2,0.1,30.3-0.1c13.3-0.2,26.5-1.8,39.7-2c6.9-0.1,13.9-1.2,20.9-1.8c9.8-0.9,19.5-2.3,29.2-3.3
				c12.3-1.3,24.5-2.8,36.2-7.3c2.2-0.8,5.2-1.4,5.1-4.3C1292.3,1558.4,1289.6,1557.4,1287.4,1556.4z M1119.4,1560
				c-3.6,0-7.3-0.1-10.9-0.1c0,0,0,0,0,0C1112.2,1559.9,1115.8,1559.9,1119.4,1560c2.1,0,4.2-0.1,6.3-0.1l0,0
				C1123.6,1559.9,1121.5,1559.9,1119.4,1560c0,0.6,0,1.1,0,1.7c2.7,0,5.4,0.1,8.1,0.1c13.8,0,27.6,0,41.3,0l0,0
				c-13.8,0-27.6,0-41.3,0c-1.8,2.6-4.3,3-6.9,3.2c-0.5,0-0.9,0-1.4,0.1c0.5,0,0.9,0,1.4-0.1c2.6-0.2,5.2-0.6,6.9-3.2
				c-2.7,0-5.4-0.1-8.1-0.1C1119.4,1561.1,1119.4,1560.5,1119.4,1560z M1129.3,1559.8c7.5-0.2,14.9,0.5,22.4-0.2
				C1144.3,1560.3,1136.8,1559.6,1129.3,1559.8c-0.6,0-1.2,0-1.7,0C1128.2,1559.8,1128.7,1559.8,1129.3,1559.8z M1177,1559.1
				c-6.8,0.1-13.7-0.2-20.5-0.1C1163.3,1559,1170.2,1559.3,1177,1559.1z M1189.7,1560.8c5.1-0.6,10.5-1,14.5-4.4
				C1200.2,1559.8,1194.8,1560.2,1189.7,1560.8c-0.9,0.1-1.8,0.2-2.7,0.3C1187.9,1560.9,1188.8,1560.9,1189.7,1560.8z M1108.6,1559
				c0.3-0.3,0.6-0.6,0.9-0.9c4.2,0,8.5,0,12.7,0c0.9,0,1.8-0.2,2.6,0.2c-0.7-0.4-1.7-0.2-2.6-0.2c-4.2,0-8.5,0-12.7,0
				C1109.2,1558.4,1108.9,1558.7,1108.6,1559c-7.5,0-14.9,0-22.4-0.1C1093.7,1559,1101.2,1559.1,1108.6,1559z M1151.9,1566.8
				c-7.7,1-15.4,1.6-23.2,2.1C1136.5,1568.4,1144.2,1567.9,1151.9,1566.8z M1023.6,1570.6c18.9-0.7,37.7,1.8,56.6,0.2
				c1.7-0.1,3.3-0.2,5-0.3c-1.7,0.1-3.3,0.2-5,0.3C1061.3,1572.5,1042.5,1569.9,1023.6,1570.6c-5.3,0.2-10.7,0.4-16,0.4
				C1013,1571,1018.3,1570.8,1023.6,1570.6z M1206.8,1553.6C1206.8,1553.6,1206.8,1553.6,1206.8,1553.6c-0.2-0.6-0.5-1.3-0.7-1.9
				C1206.3,1552.3,1206.5,1553,1206.8,1553.6z M1205.6,1550.3C1205.6,1550.3,1205.6,1550.3,1205.6,1550.3c-1.8,4.3-5.1,5.9-8.8,6.7
				C1200.5,1556.2,1203.8,1554.6,1205.6,1550.3z M1189.1,1526.3c-1.6,0.5-3.8,0.9-5,1.1C1185.3,1527.2,1187.3,1526.8,1189.1,1526.3z
				 M1183.8,1527.5c-0.2,0-0.4,0.1-0.5,0.1C1183.5,1527.5,1183.6,1527.5,1183.8,1527.5z M1159.7,1511.4c-2.4,0.5-4.8,1-7.2,1.4
				C1154.9,1512.3,1157.3,1511.8,1159.7,1511.4z M1111.4,1491.6c5.4,0,10.8,0,16.1,0C1122.1,1491.6,1116.8,1491.6,1111.4,1491.6z
				 M879.2,1550.9c0.1,0,0.2,0,0.2,0C879.4,1550.9,879.3,1550.9,879.2,1550.9z M874.8,1551.4c0.2,0,0.4-0.1,0.6-0.1
				C875.2,1551.3,875,1551.3,874.8,1551.4z M876.4,1551.2c0.1,0,0.3,0,0.4,0C876.6,1551.1,876.5,1551.2,876.4,1551.2z M877.8,1551
				c0.1,0,0.2,0,0.3,0C878,1551,877.9,1551,877.8,1551z M872.6,1551.7c0.5-0.1,0.9-0.1,1.4-0.2
				C873.6,1551.5,873.1,1551.6,872.6,1551.7z M884,1547.4c1.2,1.2,1,2.4,0,3.6c-0.2-0.1-0.5-0.2-0.7-0.2
				C883.5,1549.7,883.8,1548.6,884,1547.4z M880.8,1550.8c0,0-0.1,0-0.1,0C880.7,1550.8,880.8,1550.8,880.8,1550.8z M867.8,1552.4
				c-0.1,0-0.2,0-0.2,0C867.7,1552.4,867.7,1552.4,867.8,1552.4z M865.4,1552.8c-0.3,0.1-0.6,0.1-0.8,0.2
				C864.9,1552.9,865.1,1552.9,865.4,1552.8z M852.9,1555.9c-0.8,0.3-1.7,0.5-2.5,0.8C851.2,1556.4,852,1556.1,852.9,1555.9z
				 M863,1553.3c-0.4,0.1-0.8,0.2-1.2,0.3C862.2,1553.5,862.6,1553.4,863,1553.3z M860.5,1553.8c-0.5,0.1-0.9,0.2-1.4,0.3
				C859.5,1554.1,860,1553.9,860.5,1553.8z M857.9,1554.4c-0.5,0.1-1,0.3-1.5,0.4C856.9,1554.7,857.4,1554.6,857.9,1554.4z
				 M855.4,1555.1c-0.5,0.1-1,0.3-1.6,0.5C854.3,1555.4,854.9,1555.3,855.4,1555.1z"/>
			<linearGradient id="SVGID_7_" gradientUnits="userSpaceOnUse" x1="1044.304" y1="1455" x2="1044.304" y2="1561.2308">
				<stop  offset="0" style="stop-color:#656565"/>
				<stop  offset="1" style="stop-color:#CFCFCF"/>
			</linearGradient>
			<path class="st18" d="M1148.3,1462L1148.3,1462c0-0.1,0-0.1,0-0.2c-0.3-1.2-0.6-2.4-0.8-3.4c-0.3-1.7-0.5-3.2-0.6-4.5
				c-0.1-1.3,0-2.5,0.1-3.5c-68.5,0-137,0-205.6,0c0.2,1,0.2,2.2,0.1,3.6c-0.1,1.3-0.3,2.8-0.6,4.5c-0.2,1.1-0.5,2.2-0.8,3.4
				c0,0.1,0,0.1-0.1,0.2c68.5,0,136.9,0,205.4,0C1146.5,1462,1147.4,1461.9,1148.3,1462z"/>
		</g>
	</g>
	<path class="st19" d="M1149.3,1465.1h-210c0-0.1,0.1-0.3,0.1-0.4c0.3-0.9,0.6-1.8,0.8-2.7c0-0.1,0-0.1,0.1-0.2h208
		c0,0.1,0,0.2,0.1,0.2c0.2,0.9,0.5,1.8,0.8,2.8C1149.2,1464.9,1149.2,1465,1149.3,1465.1z"/>
	<path class="st4" d="M1153.5,1443.3c-0.2,0-0.4,0-0.5,0C1153.3,1443.3,1153.5,1443.3,1153.5,1443.3z"/>
	<path class="st4" d="M1224.5,1546.2c-1.5,1.8-3.1,3.4-4.7,4.7c-5.5,4.6-10.7,5.6-14.2-1.6c0.3,0,0.6,0,0.9-0.1
		c-0.3-3.2,0.7-4.8,4.3-4.4C1215.4,1545.3,1219.9,1545.7,1224.5,1546.2z"/>
	<path class="st4" d="M895.2,1527.9c0.6,0,1.3,0.1,1.9,0.1c0,0,0,0.1-0.1,0.1L895.2,1527.9z"/>
	<path class="st4" d="M902.8,1517.7c0.1,0.1,0.4,0.3,0.8,0.4C903.2,1518,902.9,1517.9,902.8,1517.7
		C902.7,1517.7,902.8,1517.7,902.8,1517.7z"/>
	<path class="st4" d="M904.7,1518.3c0.1,0,0.2,0,0.4,0.1c0,0,0,0,0,0C904.9,1518.4,904.8,1518.4,904.7,1518.3z"/>
	<g>
		<path class="st20" d="M1107.5,1116.8l-95,117.1c-10.4,12.9-29.4,14.8-42.2,4.4l-210.9-171.1c-12.9-10.4-14.8-29.4-4.4-42.2
			l95-117.1c10.4-12.9,29.4-14.8,42.2-4.4l210.9,171.1C1116,1085,1118,1103.9,1107.5,1116.8z"/>
		<path class="st20" d="M1151.8,1149.4l-128.5,79c-14.1,8.7-32.6,4.3-41.3-9.8L839.8,987.3c-8.7-14.1-4.3-32.6,9.8-41.3l128.5-79
			c14.1-8.7,32.6-4.3,41.3,9.8l142.3,231.3C1170.3,1122.2,1165.9,1140.7,1151.8,1149.4z"/>
		<path class="st20" d="M1205.5,1188.8l-148.1,28.8c-16.3,3.2-32-7.5-35.2-23.7l-51.8-266.6c-3.2-16.3,7.5-32,23.7-35.2l148.1-28.8
			c16.3-3.2,32,7.5,35.2,23.7l51.8,266.6C1232.4,1169.9,1221.8,1185.7,1205.5,1188.8z"/>
		<path class="st21" d="M1230.9,1249.2l-147.1-33.2c-16.2-3.7-26.3-19.7-22.7-35.9l59.8-264.9c3.7-16.2,19.7-26.3,35.9-22.7
			l147.1,33.2c16.2,3.7,26.3,19.7,22.7,35.9l-59.8,264.9C1263.2,1242.7,1247.1,1252.8,1230.9,1249.2z"/>
		<g>
			<path class="st22" d="M1142.6,930.9c-0.3-0.4-0.5-0.8-0.8-1.2c-0.2-0.3-0.4-0.6-0.6-0.9c-0.4-0.6-0.8-1.2-1.2-1.8
				c-0.1-0.2-0.3-0.4-0.4-0.6c0,0,0-0.1,0-0.1c0.1,0,0.2,0,0.3,0c2.3,0.5,4.5,1.1,6.8,1.6c0.1,0,0.3,0.1,0.4,0.1
				c0-0.1,0-0.1-0.1-0.2c-0.7-1.1-1.4-2.3-2.1-3.4c-0.2-0.3-0.4-0.6-0.5-0.9c0-0.1-0.1-0.1-0.1-0.2c0.3-0.2,0.6-0.4,0.9-0.6
				c0.4-0.3,0.9-0.5,1.3-0.8c0.7-0.4,1.4-0.9,2.1-1.3c0.1-0.1,0.3-0.2,0.4-0.2c0.1,0,0.2,0.1,0.2,0.2c0.4,0.6,0.8,1.2,1.1,1.8
				c0.5,0.8,1,1.6,1.5,2.4c0,0.1,0.1,0.2,0.1,0.3c0,0.1-0.1,0.1-0.2,0.2c-1.5,0.9-3,1.9-4.5,2.8c-0.9,0.6-1.8,1.1-2.8,1.7
				c-0.6,0.4-1.2,0.8-1.8,1.1C1142.8,930.9,1142.7,931,1142.6,930.9z"/>
			<path class="st22" d="M1172.3,925.7c0.1,0.2,0.3,0.4,0.4,0.6c0.4,0.7,0.9,1.4,1.3,2.1c0.4,0.6,0.7,1.2,1.1,1.8
				c0.3,0.5,0.6,0.9,0.9,1.4c0.4,0.6,0.8,1.3,1.2,1.9c0.3,0.5,0.6,0.9,0.8,1.3c0.1,0.1,0.1,0.2,0.2,0.3c0,0,0,0.1,0,0.1
				c-0.5-0.1-0.9-0.2-1.3-0.3c-0.8-0.2-1.6-0.4-2.4-0.6c-1-0.2-2.1-0.5-3.1-0.7c-0.2-0.1-0.5-0.1-0.7-0.2c0,0-0.1-0.1-0.1-0.1
				c0-0.1,0.1-0.1,0.1-0.1c1-0.6,1.9-1.2,2.9-1.8c0.5-0.3,1-0.6,1.5-0.9c-0.4-0.1-0.7-0.2-1-0.2c-1.7-0.4-3.3-0.8-5-1.2
				c-0.4-0.1-0.8-0.2-1.3-0.3c-0.1,0-0.2,0-0.2-0.1c0,0,0,0,0,0c0-0.1,0.1-0.1,0.2-0.2c1-0.6,2-1.2,3-1.8c0.5-0.3,0.9-0.6,1.3-0.8
				C1172.1,925.7,1172.2,925.6,1172.3,925.7z"/>
			<path class="st22" d="M1172.3,925.7c-0.2,0.1-0.4,0.2-0.5,0.3c-0.3,0.2-0.5,0.3-0.8,0.5c-0.6,0.4-1.3,0.8-1.9,1.2
				c-0.2,0.2-0.5,0.3-0.7,0.5c-0.3,0.2-0.5,0.3-0.8,0.5c-0.4-0.5-0.7-1.1-1-1.6c-0.3-0.4-0.5-0.9-0.8-1.3c-0.4-0.6-0.8-1.2-1.2-1.9
				c0.1-0.2,0.4-0.3,0.6-0.4c0.8-0.5,1.7-1,2.5-1.6c0.5-0.3,1-0.6,1.5-0.9c0.1,0,0.1-0.1,0.2,0c0.4,0.7,0.8,1.3,1.3,2
				C1171.2,923.8,1171.7,924.7,1172.3,925.7C1172.3,925.6,1172.3,925.7,1172.3,925.7z"/>
			<path class="st22" d="M1158.1,934.5c-0.1,0.1-0.2,0.2-0.3,0.2c-0.6,0.4-1.3,0.8-1.9,1.2c-0.8,0.5-1.7,1-2.5,1.6c0,0,0,0-0.1,0
				c-0.2-0.2-0.4-0.6-0.5-0.8c-0.4-0.7-0.8-1.3-1.2-2c-0.4-0.6-0.7-1.2-1.1-1.8c0-0.1-0.1-0.1,0-0.2c0.5-0.4,1.1-0.7,1.7-1.1
				c0.8-0.5,1.7-1,2.5-1.6c0.2-0.1,0.3-0.3,0.6-0.3c0.2,0.2,0.3,0.4,0.5,0.6c0.4,0.6,0.8,1.2,1.2,1.9c0.4,0.7,0.9,1.4,1.3,2.1
				C1158,934.4,1158.1,934.5,1158.1,934.5z"/>
			<path class="st22" d="M1154,917.3c0.4-0.3,0.8-0.5,1.2-0.8c0.5-0.3,1-0.6,1.4-0.9c0.7-0.4,1.4-0.9,2.1-1.3
				c0.1,0.2,0.3,0.4,0.4,0.6c0.2,0.2,0.3,0.5,0.4,0.7c0.5,0.8,1,1.7,1.6,2.5c0.2,0.2,0.3,0.5,0.5,0.8c0.1,0.1,0.1,0.1-0.1,0.2
				c-0.2,0.1-0.3,0.2-0.5,0.3c-0.8,0.5-1.7,1-2.5,1.5c-0.5,0.3-0.9,0.6-1.4,0.9c-0.1,0-0.1,0.1-0.2,0.1c-0.2-0.2-0.4-0.5-0.5-0.8
				c-0.5-0.8-1-1.7-1.6-2.5c-0.2-0.4-0.5-0.8-0.7-1.2C1154,917.5,1153.9,917.4,1154,917.3z"/>
			<path class="st22" d="M1148.6,940.5c-0.3,0.2-0.5,0.3-0.8,0.5c-0.6,0.4-1.3,0.8-1.9,1.2c-0.6,0.4-1.3,0.8-1.9,1.2
				c-0.1,0.1-0.1,0.1-0.2-0.1c-0.4-0.6-0.8-1.3-1.2-1.9c-0.6-0.9-1.1-1.8-1.7-2.7c0.1-0.1,0.2-0.1,0.3-0.2c1-0.6,1.9-1.2,2.9-1.8
				c0.5-0.3,1.1-0.6,1.6-1c0.1,0,0.1,0.1,0.2,0.2c0.7,1.1,1.4,2.3,2.1,3.4c0.2,0.3,0.4,0.7,0.6,1
				C1148.5,940.3,1148.6,940.4,1148.6,940.5z"/>
			<path class="st22" d="M1164,944c-1.6,1-3.2,2-4.8,3c-0.4-0.6-0.7-1.2-1.1-1.8c-0.3-0.4-0.5-0.8-0.8-1.2c-0.3-0.5-0.7-1.1-1-1.6
				c0,0-0.1-0.1-0.1-0.1c0,0,0,0,0,0c0,0,0,0,0,0c0.2-0.1,0.4-0.2,0.6-0.3c0.6-0.4,1.3-0.8,1.9-1.2c0.7-0.5,1.5-0.9,2.2-1.4
				c0,0,0.1,0,0.1,0c0.1,0.1,0.2,0.2,0.2,0.3c0.4,0.7,0.9,1.4,1.3,2c0.5,0.7,0.9,1.5,1.4,2.2C1164,943.9,1164,944,1164,944z"/>
			<path class="st22" d="M1154,917.3c0,0.1,0.1,0.2,0.1,0.3c0.2,0.3,0.3,0.5,0.5,0.8c0.3,0.5,0.6,0.9,0.9,1.4c0.4,0.7,0.8,1.4,1.3,2
				c0.1,0.1,0.1,0.2,0.2,0.3c0,0,0,0,0,0c0,0.1-0.2,0.2-0.3,0.2c-1.4,0.9-2.9,1.8-4.3,2.7c0,0-0.1,0.1-0.1,0.1c0,0,0,0-0.1,0
				c0-0.2-0.1-0.3-0.2-0.4c-0.6-0.9-1.1-1.8-1.7-2.7c-0.3-0.5-0.6-1-0.9-1.5c0,0,0-0.1-0.1-0.1c0,0,0,0,0,0c0,0,0,0,0-0.1
				c0.7-0.5,1.4-0.9,2.1-1.3c0.8-0.5,1.6-1,2.4-1.5C1153.8,917.4,1153.8,917.3,1154,917.3C1153.9,917.3,1154,917.3,1154,917.3z"/>
			<path class="st22" d="M1170.6,933.3C1170.6,933.4,1170.6,933.4,1170.6,933.3c0.2,0.4,0.4,0.7,0.6,1c0.6,1,1.3,2,1.9,3.1
				c0.1,0.2,0.3,0.5,0.5,0.7c-0.3,0.2-0.6,0.4-0.9,0.5c-0.5,0.3-1.1,0.7-1.6,1c-0.7,0.5-1.5,0.9-2.2,1.4c0,0-0.1,0.1-0.1,0.1
				c-0.2-0.2-0.3-0.5-0.5-0.7c-0.3-0.5-0.6-1-0.9-1.5c-0.5-0.8-1-1.6-1.5-2.4c0-0.1-0.1-0.1-0.1-0.2c0.2-0.1,0.4-0.3,0.7-0.4
				c0.5-0.3,1-0.6,1.5-0.9c0.8-0.5,1.6-1,2.4-1.5C1170.4,933.5,1170.4,933.4,1170.6,933.3C1170.5,933.3,1170.5,933.3,1170.6,933.3z"
				/>
			<path class="st22" d="M1165.7,936.3c0.2,0.2,0.3,0.4,0.4,0.6c0.2,0.3,0.4,0.6,0.6,0.9c0.4,0.6,0.8,1.2,1.2,1.9
				c0.2,0.4,0.5,0.8,0.7,1.2c0,0.1,0.1,0.2,0.1,0.2c-0.3,0.2-0.7,0.4-1,0.6c-0.4,0.3-0.9,0.5-1.3,0.8c-0.7,0.4-1.4,0.8-2,1.3
				c-0.1,0.1-0.2,0.2-0.4,0.2c-0.1-0.1-0.2-0.2-0.3-0.4c-0.3-0.4-0.5-0.9-0.8-1.3c-0.1-0.2-0.3-0.4-0.4-0.6c-0.3-0.5-0.6-1-1-1.5
				c-0.2-0.2-0.3-0.5-0.4-0.7c0-0.1-0.1-0.1-0.1-0.2c0.7-0.4,1.3-0.8,2-1.3c0.6-0.4,1.2-0.7,1.8-1.1
				C1165.1,936.7,1165.4,936.5,1165.7,936.3z"/>
			<path class="st22" d="M1148.6,940.5c-0.1-0.2-0.3-0.4-0.4-0.6c-0.5-0.8-1-1.6-1.5-2.5c-0.3-0.5-0.6-1-0.9-1.5
				c0-0.1-0.1-0.1-0.1-0.2c0,0,0,0,0,0c0.3-0.2,0.7-0.4,1-0.6c0.4-0.3,0.9-0.6,1.3-0.8c0.7-0.4,1.4-0.9,2.1-1.3
				c0.1,0,0.1-0.1,0.2-0.1c0,0,0,0,0.1,0c0,0,0,0,0,0c0,0.1,0,0.1,0.1,0.1c0.3,0.5,0.6,0.9,0.9,1.4c0.6,1,1.2,2,1.8,2.9
				c0.1,0.1,0.1,0.2,0.2,0.3c0,0,0,0,0,0c-0.7,0.5-1.4,0.9-2.1,1.3c-0.6,0.4-1.3,0.8-1.9,1.2
				C1149.1,940.2,1148.8,940.4,1148.6,940.5L1148.6,940.5z"/>
			<path class="st22" d="M1156.3,942.2C1156.3,942.2,1156.3,942.2,1156.3,942.2c-0.5,0.3-1,0.6-1.5,1c-0.8,0.5-1.6,1-2.4,1.5
				c-0.2,0.2-0.5,0.3-0.7,0.5c0,0-0.1,0.1-0.1,0c0.1-0.4,0.2-0.8,0.3-1.2c0.1-0.6,0.3-1.2,0.4-1.8c0.2-0.8,0.3-1.5,0.5-2.3
				c0.2-0.7,0.3-1.4,0.5-2.1c0-0.1,0-0.2,0.1-0.3c0,0,0,0,0,0c0,0,0,0,0,0c0.3,0.5,0.7,1.1,1,1.6c0.3,0.5,0.7,1.1,1,1.6
				C1155.7,941.2,1156,941.7,1156.3,942.2z"/>
			<path class="st22" d="M1153.3,937.5c-0.1,0.3-0.1,0.5-0.2,0.8c-0.1,0.2-0.1,0.4-0.2,0.6c-0.1,0.4-0.2,0.7-0.2,1.1
				c-0.1,0.2-0.1,0.4-0.2,0.7c-0.1,0.4-0.1,0.7-0.2,1.1c-0.1,0.2-0.1,0.5-0.2,0.7c-0.1,0.2-0.1,0.4-0.1,0.6
				c-0.1,0.3-0.1,0.5-0.2,0.8c-0.1,0.3-0.2,0.7-0.2,1c0,0.1,0,0.1-0.1,0.2c-0.2-0.2-0.3-0.5-0.5-0.8c-0.3-0.5-0.6-1-0.9-1.4
				c-0.4-0.6-0.8-1.3-1.2-1.9c-0.1-0.2-0.3-0.4-0.3-0.6c0.1-0.1,0.2-0.2,0.3-0.2c0.7-0.4,1.4-0.9,2.1-1.3c0.6-0.4,1.2-0.8,1.9-1.2
				C1153,937.7,1153.1,937.5,1153.3,937.5z"/>
			<path class="st22" d="M1150.3,932.7c0,0.1-0.2,0.1-0.2,0.2c-0.5,0.3-1.1,0.7-1.6,1c-0.8,0.5-1.6,1-2.4,1.5
				c-0.1,0.1-0.2,0.1-0.3,0.2c-0.1,0-0.1,0.1-0.2,0.1c-0.3-0.5-0.7-1.1-1-1.6c-0.4-0.6-0.8-1.3-1.2-1.9c-0.2-0.4-0.5-0.7-0.7-1.1
				c0.1-0.1,0.2-0.1,0.2,0c0.7,0.2,1.4,0.3,2.1,0.5c1.7,0.4,3.4,0.8,5.1,1.2C1150.2,932.6,1150.3,932.6,1150.3,932.7z"/>
			<path class="st22" d="M1149.2,920.3C1149.2,920.3,1149.2,920.3,1149.2,920.3c-0.2-0.3-0.4-0.6-0.6-0.9c-0.5-0.8-1-1.7-1.5-2.5
				c-0.3-0.4-0.5-0.8-0.8-1.2c0-0.1-0.1-0.1-0.1-0.2c0.4-0.2,0.8-0.5,1.2-0.7c0.5-0.3,1-0.6,1.4-0.9c0.7-0.4,1.4-0.8,2-1.3
				c0,0,0,0,0.1,0c0.1,0.1,0,0.2,0,0.2c-0.3,1.3-0.6,2.7-0.9,4c-0.2,1-0.4,1.9-0.7,2.9C1149.3,919.9,1149.3,920.1,1149.2,920.3z"/>
			<path class="st22" d="M1144.5,923.3c0.2,0.4,0.4,0.7,0.6,1c0.2,0.4,0.5,0.8,0.7,1.1c0.2,0.3,0.4,0.7,0.6,1
				c0.3,0.4,0.5,0.8,0.8,1.2c0.1,0.1,0.1,0.2,0.1,0.3c-0.2,0-0.3-0.1-0.5-0.1c-0.9-0.2-1.8-0.4-2.6-0.6c-0.6-0.1-1.1-0.3-1.7-0.4
				c-0.9-0.2-1.8-0.4-2.7-0.6c0,0-0.1,0-0.1,0c0-0.1,0.1-0.1,0.1-0.1c0.8-0.5,1.6-1,2.4-1.5c0.6-0.4,1.2-0.8,1.9-1.2
				C1144.3,923.4,1144.4,923.3,1144.5,923.3z"/>
			<path class="st22" d="M1158.1,934.5c-0.3-0.5-0.6-1-1-1.5c-0.4-0.6-0.8-1.2-1.2-1.8c-0.3-0.4-0.5-0.9-0.8-1.3c0,0,0,0,0,0
				c0,0,0,0,0.1,0c0.8,0.2,1.5,0.3,2.3,0.5c0.7,0.2,1.3,0.3,2,0.5c0.7,0.2,1.3,0.3,2,0.5c0.4,0.1,0.7,0.2,1.1,0.2
				c0.1,0,0.2,0,0.2,0.2c-0.5,0.3-1,0.6-1.4,0.9c-0.6,0.4-1.3,0.8-1.9,1.2c-0.4,0.3-0.9,0.5-1.3,0.8
				C1158.1,934.5,1158.1,934.5,1158.1,934.5z"/>
			<path class="st22" d="M1169.3,920.9c-0.6,0.4-1.1,0.7-1.7,1.1c-0.6,0.4-1.3,0.8-1.9,1.2c-0.4,0.2-0.7,0.5-1.1,0.7c0,0,0,0,0,0
				c0.1-0.4,0.2-0.9,0.3-1.3c0.5-2,0.9-4.1,1.4-6.1c0-0.1,0-0.2,0.1-0.3c0.1,0,0.1,0,0.1,0.1c0.3,0.5,0.6,1,0.9,1.4
				c0.1,0.2,0.3,0.5,0.4,0.7C1168.3,919.2,1168.8,920,1169.3,920.9C1169.3,920.9,1169.3,920.9,1169.3,920.9z"/>
			<path class="st22" d="M1166.4,916.2c0,0.1,0,0.1,0,0.2c-0.2,0.7-0.3,1.4-0.5,2.1c-0.2,1-0.5,2-0.7,3c-0.2,0.7-0.3,1.4-0.5,2.2
				c0,0.1,0,0.1-0.1,0.2c-1-1.6-1.9-3.1-2.9-4.7c0.2-0.1,0.4-0.3,0.7-0.4c0.4-0.3,0.9-0.5,1.3-0.8c0.7-0.4,1.4-0.9,2.1-1.3
				C1165.9,916.5,1166.1,916.3,1166.4,916.2z"/>
			<path class="st22" d="M1162.8,931.6c-0.1-0.1-0.3-0.1-0.5-0.1c-0.3-0.1-0.7-0.1-1-0.2c-1-0.2-2-0.5-3-0.7
				c-0.8-0.2-1.5-0.3-2.3-0.5c-0.3-0.1-0.5-0.1-0.8-0.2c0,0-0.1,0-0.1,0c0-0.1,0.1-0.1,0.2-0.2c1.5-0.9,3-1.8,4.4-2.8c0,0,0,0,0.1,0
				c0,0,0,0,0,0c0.2,0.3,0.4,0.6,0.5,0.8c0.1,0.2,0.3,0.4,0.4,0.7c0.4,0.6,0.8,1.3,1.2,1.9c0.3,0.4,0.5,0.9,0.8,1.3
				C1162.8,931.5,1162.8,931.6,1162.8,931.6z"/>
			<path class="st22" d="M1152.2,925.1c0.3-0.3,0.7-0.4,1-0.7c0.4-0.3,0.9-0.5,1.3-0.8c0.7-0.4,1.3-0.8,2-1.2
				c0.1-0.1,0.3-0.2,0.4-0.2c0,0,0.1,0,0.1,0.1c0.4,0.7,0.9,1.4,1.3,2.1c0.3,0.5,0.7,1.1,1,1.6c0.2,0.3,0.4,0.6,0.5,0.9c0,0,0,0,0,0
				c-0.1,0.1-0.2,0-0.2,0c-2-0.5-4.1-0.9-6.1-1.4C1153.1,925.3,1152.6,925.2,1152.2,925.1C1152.2,925.1,1152.2,925.1,1152.2,925.1z"
				/>
			<path class="st22" d="M1150.3,932.7c-0.8-0.2-1.6-0.4-2.3-0.5c-1.1-0.3-2.2-0.5-3.3-0.8c-0.6-0.1-1.2-0.3-1.8-0.4
				c0,0-0.1,0-0.1,0c0,0,0-0.1-0.1-0.1c0.2,0,0.3-0.1,0.4-0.2c0.7-0.4,1.4-0.9,2.1-1.3c0.2-0.1,0.4-0.2,0.5-0.4
				c0.6-0.3,1.1-0.7,1.7-1c0.1,0,0.1,0.1,0.2,0.2c0.7,1.1,1.4,2.3,2.1,3.4c0.2,0.3,0.3,0.6,0.5,0.8
				C1150.3,932.5,1150.4,932.6,1150.3,932.7C1150.3,932.7,1150.3,932.7,1150.3,932.7z"/>
			<path class="st22" d="M1173.5,938.1c-0.1,0-0.1-0.1-0.2-0.1c-0.1-0.3-0.3-0.5-0.5-0.8c-0.3-0.5-0.6-0.9-0.8-1.3
				c-0.3-0.5-0.6-1-0.9-1.5c-0.2-0.3-0.4-0.5-0.5-0.8c0-0.1,0-0.1,0-0.1c0.4,0.1,0.8,0.2,1.2,0.3c0.3,0.1,0.7,0.2,1,0.2
				c0.4,0.1,0.9,0.2,1.3,0.3c0.3,0.1,0.7,0.2,1,0.2c0.8,0.2,1.6,0.4,2.4,0.6c0.2,0,0.4,0.1,0.6,0.1c0,0,0.1,0,0.1,0.1
				c-1,0.6-2,1.2-3,1.8C1174.6,937.4,1174.1,937.7,1173.5,938.1C1173.6,938.1,1173.5,938.1,1173.5,938.1z"/>
			<path class="st22" d="M1149.2,920.3c0-0.3,0.1-0.5,0.2-0.8c0.3-1.4,0.6-2.7,0.9-4.1c0.2-0.9,0.4-1.8,0.6-2.8c0,0,0,0,0-0.1
				c0.1,0.1,0.2,0.3,0.3,0.4c0.3,0.5,0.6,1,0.9,1.4c0.4,0.6,0.8,1.3,1.2,1.9c0.2,0.3,0.4,0.7,0.6,1c-0.3,0.2-0.6,0.4-0.9,0.6
				c-0.7,0.4-1.4,0.8-2,1.3C1150.5,919.5,1149.9,919.9,1149.2,920.3C1149.3,920.3,1149.2,920.3,1149.2,920.3z"/>
			<path class="st22" d="M1170.6,933.3C1170.6,933.3,1170.5,933.4,1170.6,933.3c-0.3-0.3-0.5-0.7-0.8-1.1c-0.4-0.7-0.8-1.3-1.2-2
				c-0.3-0.5-0.6-0.9-0.9-1.4c0-0.1-0.1-0.1-0.1-0.2c0.3,0,0.5,0.1,0.8,0.2c1.2,0.3,2.4,0.5,3.5,0.8c0.9,0.2,1.8,0.4,2.7,0.6
				c0.2,0,0.4,0.1,0.6,0.1c-0.5,0.4-1,0.7-1.5,1c-0.5,0.3-1,0.6-1.5,1C1171.6,932.7,1171.1,933,1170.6,933.3z"/>
			<path class="st22" d="M1155.1,929.8c-0.2-0.3-0.3-0.5-0.5-0.8c-0.3-0.5-0.6-0.9-0.9-1.4c-0.4-0.6-0.8-1.3-1.2-1.9
				c-0.1-0.2-0.3-0.4-0.3-0.6c0.3,0,0.6,0.1,0.9,0.2c1.5,0.3,2.9,0.7,4.4,1c0.7,0.2,1.5,0.4,2.2,0.5c0,0,0,0,0.1,0
				c-0.2,0.2-0.4,0.3-0.5,0.4c-0.5,0.3-0.9,0.6-1.4,0.9c-0.7,0.4-1.3,0.8-2,1.2C1155.7,929.4,1155.4,929.6,1155.1,929.8
				C1155.1,929.8,1155.1,929.8,1155.1,929.8z"/>
		</g>
		<g>
			<path d="M996.4,937c-0.4-0.3-0.8-0.6-1.1-0.9c-0.3-0.2-0.6-0.5-0.8-0.7c-0.6-0.5-1.1-0.9-1.7-1.4c-0.2-0.2-0.4-0.3-0.6-0.5
				c0,0-0.1,0-0.1-0.1c0.1-0.1,0.2-0.1,0.3-0.1c2.3-0.2,4.6-0.5,6.9-0.8c0.1,0,0.3,0,0.4-0.1c0-0.1-0.1-0.1-0.1-0.1
				c-1.1-0.8-2.1-1.7-3.1-2.5c-0.3-0.2-0.5-0.4-0.8-0.6c0,0-0.1-0.1-0.1-0.2c0.2-0.3,0.4-0.6,0.7-0.9c0.3-0.4,0.6-0.8,1-1.2
				c0.5-0.6,1-1.3,1.5-1.9c0.1-0.1,0.2-0.3,0.3-0.4c0.1,0,0.2,0.1,0.3,0.1c0.6,0.4,1.1,0.9,1.7,1.4c0.7,0.6,1.5,1.2,2.2,1.8
				c0.1,0.1,0.2,0.1,0.2,0.2c0,0.1-0.1,0.1-0.1,0.2c-1.1,1.4-2.2,2.8-3.3,4.2c-0.7,0.8-1.4,1.7-2,2.5c-0.4,0.5-0.9,1.1-1.3,1.6
				C996.5,936.9,996.5,937,996.4,937z"/>
			<path d="M1022.6,922.2c0.2,0.1,0.4,0.3,0.6,0.4c0.6,0.5,1.3,1,1.9,1.5c0.5,0.4,1.1,0.9,1.6,1.3c0.4,0.3,0.9,0.7,1.3,1
				c0.6,0.5,1.2,0.9,1.7,1.4c0.4,0.3,0.8,0.7,1.2,1c0.1,0.1,0.2,0.1,0.3,0.2c0,0,0.1,0.1,0,0.1c-0.4,0.1-0.9,0.1-1.4,0.2
				c-0.8,0.1-1.6,0.2-2.5,0.3c-1.1,0.1-2.1,0.3-3.2,0.3c-0.2,0-0.5,0.1-0.7,0.1c0,0-0.1,0-0.1-0.1c0-0.1,0-0.1,0.1-0.2
				c0.7-0.9,1.4-1.8,2.1-2.7c0.4-0.4,0.7-0.9,1.1-1.4c-0.4,0-0.7,0.1-1.1,0.1c-1.7,0.2-3.4,0.4-5.1,0.6c-0.4,0-0.9,0.1-1.3,0.1
				c-0.1,0-0.2,0-0.2,0c0,0,0,0,0,0c0-0.1,0.1-0.2,0.1-0.2c0.7-0.9,1.5-1.8,2.2-2.7c0.3-0.4,0.7-0.8,1-1.2
				C1022.5,922.3,1022.5,922.2,1022.6,922.2z"/>
			<path d="M1022.6,922.2c-0.1,0.2-0.3,0.3-0.4,0.5c-0.2,0.2-0.4,0.5-0.6,0.7c-0.5,0.6-1,1.2-1.4,1.8c-0.2,0.2-0.4,0.5-0.5,0.7
				c-0.2,0.2-0.4,0.5-0.6,0.7c-0.5-0.4-1-0.8-1.5-1.2c-0.4-0.3-0.8-0.6-1.2-0.9c-0.6-0.5-1.1-0.9-1.7-1.4c0.1-0.2,0.2-0.4,0.4-0.6
				c0.6-0.8,1.2-1.5,1.9-2.3c0.4-0.5,0.7-0.9,1.1-1.4c0,0,0.1-0.1,0.1-0.1c0.6,0.5,1.2,1,1.9,1.5
				C1020.9,920.9,1021.8,921.5,1022.6,922.2C1022.6,922.2,1022.6,922.2,1022.6,922.2z"/>
			<path d="M1012.1,935.3c0,0.1-0.1,0.2-0.2,0.3c-0.5,0.6-1,1.2-1.4,1.8c-0.6,0.8-1.2,1.5-1.8,2.3c0,0,0,0-0.1,0
				c-0.3-0.2-0.5-0.4-0.8-0.6c-0.6-0.5-1.2-1-1.8-1.4c-0.5-0.4-1.1-0.9-1.6-1.3c-0.1,0-0.1-0.1-0.1-0.2c0.4-0.5,0.8-1,1.2-1.6
				c0.6-0.8,1.2-1.5,1.8-2.3c0.1-0.2,0.2-0.4,0.4-0.5c0.3,0.1,0.4,0.3,0.6,0.4c0.6,0.5,1.1,0.9,1.7,1.4c0.6,0.5,1.3,1,1.9,1.5
				C1012,935.2,1012.1,935.2,1012.1,935.3z"/>
			<path d="M1002.5,920.4c0.3-0.4,0.6-0.7,0.9-1.1c0.4-0.4,0.7-0.9,1.1-1.3c0.5-0.6,1-1.3,1.5-1.9c0.2,0.2,0.4,0.3,0.6,0.5
				c0.2,0.2,0.4,0.4,0.7,0.5c0.8,0.6,1.5,1.2,2.3,1.8c0.2,0.2,0.5,0.4,0.7,0.6c0.1,0.1,0.1,0.1,0,0.2c-0.1,0.2-0.3,0.3-0.4,0.5
				c-0.6,0.8-1.2,1.5-1.8,2.3c-0.3,0.4-0.7,0.8-1,1.3c-0.1,0.1-0.1,0.1-0.2,0.2c-0.3-0.1-0.5-0.4-0.8-0.6c-0.8-0.6-1.5-1.2-2.3-1.8
				c-0.4-0.3-0.7-0.6-1.1-0.9C1002.6,920.6,1002.5,920.5,1002.5,920.4z"/>
			<path d="M1005.1,944c-0.2,0.2-0.4,0.4-0.6,0.7c-0.5,0.6-0.9,1.2-1.4,1.8c-0.5,0.6-0.9,1.2-1.4,1.8c-0.1,0.1-0.1,0.1-0.2,0
				c-0.6-0.5-1.2-0.9-1.8-1.4c-0.8-0.7-1.6-1.3-2.4-2c0-0.1,0.1-0.2,0.2-0.3c0.7-0.9,1.4-1.8,2.1-2.6c0.4-0.5,0.8-0.9,1.1-1.4
				c0.1,0,0.2,0,0.2,0.1c1,0.8,2.1,1.7,3.1,2.5c0.3,0.3,0.6,0.5,0.9,0.8C1005,943.9,1005.1,943.9,1005.1,944z"/>
			<path d="M1020.8,942.3c-1.2,1.5-2.3,2.9-3.5,4.4c-0.6-0.5-1.1-0.9-1.7-1.3c-0.4-0.3-0.7-0.6-1.1-0.9c-0.5-0.4-1-0.8-1.5-1.2
				c0,0-0.1-0.1-0.1-0.1c0,0,0,0,0,0c0,0,0,0,0,0c0.1-0.2,0.3-0.3,0.4-0.5c0.5-0.6,0.9-1.2,1.4-1.8c0.5-0.7,1.1-1.3,1.6-2
				c0,0,0,0,0.1-0.1c0.1,0,0.2,0.1,0.3,0.2c0.6,0.5,1.3,1,1.9,1.5c0.7,0.6,1.4,1.1,2,1.6C1020.8,942.2,1020.8,942.2,1020.8,942.3z"
				/>
			<path d="M1002.5,920.4c0,0.1,0.1,0.1,0.2,0.2c0.2,0.2,0.5,0.4,0.7,0.6c0.4,0.3,0.8,0.7,1.3,1c0.6,0.5,1.2,1,1.9,1.5
				c0.1,0.1,0.2,0.1,0.3,0.2c0,0,0,0,0,0c0,0.1-0.1,0.2-0.2,0.3c-1.1,1.3-2.1,2.6-3.2,4c0,0-0.1,0.1-0.1,0.1c0,0,0,0-0.1,0
				c-0.1-0.2-0.2-0.2-0.4-0.3c-0.8-0.7-1.6-1.3-2.5-2c-0.5-0.4-0.9-0.8-1.4-1.1c0,0-0.1-0.1-0.1-0.1c0,0,0,0,0,0c0,0,0,0,0-0.1
				c0.5-0.7,1-1.3,1.6-2c0.6-0.7,1.2-1.5,1.8-2.2C1002.4,920.5,1002.4,920.4,1002.5,920.4C1002.5,920.4,1002.5,920.4,1002.5,920.4z"
				/>
			<path d="M1023.5,930C1023.5,930,1023.6,930.1,1023.5,930c0.3,0.3,0.6,0.5,0.9,0.7c0.9,0.8,1.9,1.5,2.8,2.3
				c0.2,0.2,0.4,0.4,0.7,0.5c-0.2,0.3-0.4,0.5-0.6,0.8c-0.4,0.5-0.8,1-1.2,1.5c-0.5,0.7-1.1,1.4-1.6,2c0,0-0.1,0.1-0.1,0.1
				c-0.3-0.1-0.5-0.3-0.7-0.5c-0.4-0.4-0.9-0.7-1.3-1.1c-0.7-0.6-1.4-1.2-2.2-1.7c-0.1,0-0.1-0.1-0.1-0.1c0.2-0.2,0.3-0.4,0.5-0.6
				c0.4-0.5,0.7-0.9,1.1-1.4c0.6-0.7,1.2-1.5,1.8-2.2C1023.4,930.2,1023.4,930.1,1023.5,930C1023.5,930,1023.5,930,1023.5,930z"/>
			<path d="M1020,934.5c0.2,0.1,0.4,0.3,0.5,0.4c0.3,0.2,0.6,0.4,0.8,0.7c0.6,0.5,1.1,0.9,1.7,1.4c0.4,0.3,0.7,0.6,1.1,0.9
				c0.1,0.1,0.1,0.1,0.2,0.2c-0.2,0.3-0.5,0.6-0.7,0.9c-0.3,0.4-0.7,0.8-1,1.2c-0.5,0.6-1,1.2-1.5,1.9c-0.1,0.1-0.2,0.2-0.3,0.3
				c-0.1-0.1-0.2-0.2-0.4-0.3c-0.4-0.3-0.8-0.6-1.2-1c-0.2-0.2-0.4-0.3-0.6-0.5c-0.5-0.4-0.9-0.8-1.4-1.1c-0.2-0.2-0.4-0.4-0.6-0.5
				c-0.1,0-0.1-0.1-0.2-0.2c0.5-0.6,1-1.2,1.5-1.8c0.4-0.6,0.9-1.1,1.3-1.6C1019.5,935,1019.7,934.7,1020,934.5z"/>
			<path d="M1005.1,944c-0.2-0.2-0.4-0.3-0.6-0.5c-0.8-0.6-1.5-1.2-2.3-1.8c-0.5-0.4-0.9-0.7-1.4-1.1c-0.1,0-0.1-0.1-0.2-0.1
				c0,0,0,0,0,0c0.2-0.3,0.5-0.6,0.7-0.9c0.3-0.4,0.7-0.8,1-1.2c0.5-0.7,1.1-1.3,1.6-2c0.1-0.1,0.1-0.1,0.1-0.2c0,0,0,0,0,0
				c0,0,0,0,0.1,0c0,0.1,0.1,0.1,0.1,0.1c0.4,0.3,0.8,0.7,1.3,1c0.9,0.7,1.8,1.4,2.7,2.2c0.1,0.1,0.2,0.2,0.3,0.2c0,0,0,0,0,0.1
				c-0.5,0.7-1,1.3-1.6,1.9c-0.5,0.6-0.9,1.2-1.4,1.8C1005.5,943.6,1005.3,943.8,1005.1,944L1005.1,944z"/>
			<path d="M1013,943.1C1013,943.1,1013,943.1,1013,943.1c-0.4,0.5-0.7,0.9-1.1,1.4c-0.6,0.7-1.2,1.5-1.8,2.2
				c-0.2,0.2-0.4,0.5-0.5,0.7c0,0-0.1,0.1-0.1,0c-0.1-0.4-0.1-0.8-0.2-1.3c-0.1-0.6-0.1-1.2-0.2-1.8c-0.1-0.8-0.2-1.6-0.3-2.3
				c-0.1-0.7-0.2-1.4-0.2-2.1c0-0.1,0-0.2,0-0.3c0,0,0,0,0,0c0,0,0,0,0,0c0.5,0.4,1,0.8,1.5,1.2c0.5,0.4,1,0.8,1.5,1.2
				C1012.1,942.4,1012.5,942.8,1013,943.1z"/>
			<path d="M1008.6,939.7c0,0.3,0.1,0.5,0.1,0.8c0,0.2,0,0.4,0.1,0.7c0.1,0.4,0.1,0.8,0.1,1.1c0,0.2,0,0.5,0.1,0.7
				c0,0.4,0.1,0.7,0.1,1.1c0,0.2,0.1,0.5,0.1,0.7c0,0.2,0,0.4,0.1,0.6c0,0.3,0.1,0.5,0.1,0.8c0,0.3,0.1,0.7,0.1,1c0,0.1,0,0.1,0,0.2
				c-0.3-0.2-0.5-0.4-0.7-0.6c-0.4-0.3-0.9-0.7-1.3-1.1c-0.6-0.5-1.2-0.9-1.7-1.4c-0.2-0.1-0.4-0.2-0.5-0.4c0.1-0.1,0.1-0.2,0.2-0.3
				c0.5-0.6,1-1.3,1.5-1.9c0.5-0.6,0.9-1.1,1.4-1.7C1008.4,939.9,1008.5,939.8,1008.6,939.7z"/>
			<path d="M1004.2,936.1c0,0.1-0.1,0.2-0.2,0.3c-0.4,0.5-0.8,1-1.2,1.5c-0.6,0.7-1.2,1.5-1.8,2.2c-0.1,0.1-0.1,0.2-0.2,0.3
				c0,0.1-0.1,0.1-0.2,0.1c-0.5-0.4-1-0.8-1.5-1.2c-0.6-0.5-1.2-1-1.8-1.4c-0.3-0.3-0.7-0.6-1-0.8c0-0.1,0.1-0.1,0.2-0.1
				c0.7-0.1,1.4-0.2,2.1-0.2c1.7-0.2,3.4-0.4,5.2-0.6C1004,936.1,1004.1,936.1,1004.2,936.1z"/>
			<path d="M999,924.8C999,924.8,999,924.8,999,924.8c-0.3-0.2-0.6-0.4-0.8-0.6c-0.8-0.6-1.5-1.2-2.3-1.8c-0.4-0.3-0.7-0.6-1.1-0.9
				c0,0-0.1-0.1-0.1-0.1c0.3-0.4,0.6-0.7,0.9-1.1c0.4-0.4,0.7-0.9,1.1-1.3c0.5-0.6,1-1.3,1.5-1.9c0,0,0,0,0.1,0
				c0.1,0,0.1,0.1,0.1,0.2c0.1,1.4,0.3,2.7,0.4,4.1c0.1,1,0.2,2,0.3,2.9C999,924.4,999.1,924.6,999,924.8z"/>
			<path d="M995.5,929.1c0.3,0.3,0.6,0.5,0.9,0.8c0.3,0.3,0.7,0.6,1,0.8c0.3,0.2,0.6,0.5,0.9,0.8c0.4,0.3,0.7,0.6,1.2,0.9
				c0.1,0.1,0.2,0.1,0.2,0.2c-0.2,0.1-0.3,0.1-0.5,0.1c-0.9,0.1-1.8,0.2-2.7,0.3c-0.6,0.1-1.1,0.1-1.7,0.2c-0.9,0.1-1.8,0.2-2.7,0.3
				c0,0-0.1,0-0.1,0c0-0.1,0-0.1,0.1-0.1c0.6-0.7,1.2-1.5,1.8-2.2c0.5-0.6,0.9-1.1,1.4-1.7C995.4,929.3,995.4,929.2,995.5,929.1z"/>
			<path d="M1012.1,935.3c-0.5-0.4-0.9-0.8-1.4-1.1c-0.6-0.5-1.1-0.9-1.7-1.4c-0.4-0.3-0.8-0.7-1.2-1c0,0,0,0,0-0.1c0,0,0,0,0.1,0
				c0.8-0.1,1.5-0.2,2.3-0.3c0.7-0.1,1.4-0.2,2.1-0.2c0.7-0.1,1.4-0.1,2-0.2c0.4,0,0.7-0.1,1.1-0.1c0.1,0,0.2,0,0.3,0.1
				c-0.4,0.4-0.7,0.9-1.1,1.3c-0.5,0.6-0.9,1.2-1.4,1.7C1012.8,934.4,1012.5,934.8,1012.1,935.3
				C1012.2,935.2,1012.1,935.3,1012.1,935.3z"/>
			<path d="M1018.2,918.7c-0.4,0.5-0.8,1-1.3,1.6c-0.5,0.6-1,1.2-1.4,1.8c-0.3,0.3-0.5,0.7-0.8,1c0,0,0,0,0,0
				c-0.1-0.4-0.1-0.9-0.2-1.3c-0.2-2.1-0.5-4.1-0.7-6.2c0-0.1,0-0.2,0-0.3c0-0.1,0.1,0,0.1,0c0.4,0.4,0.9,0.7,1.3,1.1
				c0.2,0.2,0.4,0.3,0.6,0.5C1016.7,917.4,1017.4,918.1,1018.2,918.7C1018.2,918.7,1018.2,918.7,1018.2,918.7z"/>
			<path d="M1013.9,915.3c0,0.1,0,0.1,0,0.2c0.1,0.7,0.1,1.4,0.2,2.2c0.1,1,0.2,2,0.3,3.1c0.1,0.7,0.2,1.5,0.2,2.2
				c0,0.1,0,0.1,0,0.2c-1.4-1.1-2.9-2.3-4.3-3.5c0.2-0.2,0.3-0.4,0.5-0.6c0.3-0.4,0.6-0.8,1-1.2c0.5-0.6,1-1.3,1.5-1.9
				C1013.5,915.7,1013.7,915.4,1013.9,915.3z"/>
			<path d="M1015.6,931c-0.2-0.1-0.3,0-0.5,0c-0.3,0-0.7,0.1-1,0.1c-1,0.1-2.1,0.2-3.1,0.3c-0.8,0.1-1.5,0.2-2.3,0.3
				c-0.3,0-0.5,0.1-0.8,0.1c0,0-0.1,0-0.1,0c0-0.1,0.1-0.2,0.1-0.2c1.1-1.4,2.2-2.7,3.3-4.1c0,0,0,0,0,0c0,0,0,0,0,0
				c0.3,0.2,0.5,0.4,0.8,0.6c0.2,0.2,0.4,0.3,0.6,0.5c0.6,0.5,1.2,0.9,1.8,1.4C1014.8,930.2,1015.1,930.6,1015.6,931
				C1015.6,930.9,1015.6,930.9,1015.6,931z"/>
			<path d="M1003.4,928.3c0.2-0.3,0.5-0.6,0.7-1c0.3-0.4,0.6-0.8,1-1.2c0.5-0.6,1-1.2,1.5-1.8c0.1-0.1,0.2-0.2,0.3-0.3
				c0,0,0.1,0,0.1,0c0.7,0.5,1.3,1,2,1.6c0.5,0.4,1,0.8,1.5,1.2c0.3,0.2,0.6,0.4,0.8,0.7c0,0,0,0,0,0c-0.1,0.1-0.1,0.1-0.2,0.1
				c-2.1,0.2-4.2,0.5-6.2,0.7C1004.3,928.2,1003.9,928.3,1003.4,928.3C1003.4,928.3,1003.4,928.3,1003.4,928.3z"/>
			<path d="M1004.2,936.1c-0.8,0.1-1.6,0.2-2.4,0.3c-1.1,0.1-2.3,0.2-3.4,0.4c-0.6,0.1-1.2,0.1-1.8,0.2c0,0-0.1,0-0.1,0.1
				c0,0-0.1,0-0.1-0.1c0.1-0.1,0.2-0.2,0.3-0.3c0.5-0.6,1-1.3,1.5-1.9c0.1-0.2,0.3-0.3,0.4-0.5c0.4-0.5,0.8-1,1.3-1.5
				c0.1,0,0.2,0.1,0.2,0.1c1.1,0.9,2.1,1.7,3.2,2.5c0.3,0.2,0.5,0.4,0.8,0.6C1004.1,936,1004.2,936,1004.2,936.1
				C1004.2,936.1,1004.2,936.1,1004.2,936.1z"/>
			<path d="M1027.9,933.5c-0.1,0.1-0.2,0-0.2-0.1c-0.2-0.2-0.5-0.4-0.7-0.6c-0.4-0.3-0.8-0.7-1.2-1c-0.5-0.4-0.9-0.7-1.4-1.1
				c-0.2-0.2-0.5-0.4-0.7-0.6c0,0,0-0.1,0-0.1c0.4,0,0.8-0.1,1.2-0.1c0.3,0,0.7-0.1,1-0.1c0.4-0.1,0.9-0.1,1.4-0.2
				c0.3,0,0.7-0.1,1-0.1c0.8-0.1,1.6-0.2,2.4-0.3c0.2,0,0.4,0,0.6-0.1c0,0,0.1,0,0.1,0c-0.7,0.9-1.5,1.8-2.2,2.7
				C1028.7,932.5,1028.3,933,1027.9,933.5C1027.9,933.5,1027.9,933.5,1027.9,933.5z"/>
			<path d="M999,924.8c-0.1-0.3-0.1-0.5-0.1-0.8c-0.2-1.4-0.3-2.8-0.5-4.1c-0.1-0.9-0.2-1.9-0.3-2.8c0,0,0,0,0-0.1
				c0.2,0,0.3,0.2,0.4,0.3c0.4,0.3,0.9,0.7,1.3,1.1c0.6,0.5,1.2,0.9,1.7,1.4c0.3,0.2,0.6,0.5,0.9,0.7c-0.2,0.3-0.4,0.5-0.6,0.8
				c-0.5,0.6-1,1.3-1.5,1.9C1000,923.6,999.5,924.2,999,924.8C999.1,924.7,999.1,924.7,999,924.8z"/>
			<path d="M1023.5,930C1023.5,930,1023.5,930.1,1023.5,930c-0.4-0.2-0.7-0.5-1.1-0.8c-0.6-0.5-1.2-1-1.8-1.5
				c-0.4-0.3-0.8-0.7-1.3-1c-0.1-0.1-0.1-0.1-0.2-0.2c0.3-0.1,0.5-0.1,0.8-0.1c1.2-0.1,2.4-0.3,3.6-0.4c0.9-0.1,1.9-0.2,2.8-0.3
				c0.2,0,0.4-0.1,0.6-0.1c-0.4,0.5-0.8,1-1.1,1.4c-0.4,0.5-0.8,0.9-1.1,1.4S1023.9,929.5,1023.5,930z"/>
			<path d="M1007.7,931.8c-0.3-0.2-0.5-0.4-0.8-0.6c-0.4-0.3-0.9-0.7-1.3-1c-0.6-0.5-1.2-0.9-1.8-1.4c-0.2-0.1-0.4-0.3-0.5-0.4
				c0.3-0.1,0.6-0.1,1-0.1c1.5-0.2,3-0.3,4.5-0.5c0.8-0.1,1.5-0.2,2.3-0.2c0,0,0,0,0.1,0c-0.1,0.2-0.3,0.4-0.4,0.5
				c-0.3,0.4-0.7,0.8-1,1.3c-0.5,0.6-1,1.2-1.5,1.8C1008.1,931.3,1008,931.5,1007.7,931.8C1007.8,931.8,1007.8,931.8,1007.7,931.8z"
				/>
		</g>
		<g>
			<path d="M867.3,988.1c-0.4-0.2-0.9-0.4-1.3-0.5c-0.3-0.1-0.7-0.3-1-0.4c-0.7-0.3-1.3-0.5-2-0.8c-0.2-0.1-0.5-0.2-0.7-0.3
				c0,0-0.1,0-0.1-0.1c0.1-0.1,0.2-0.1,0.2-0.2c2.1-0.9,4.3-1.8,6.4-2.8c0.1-0.1,0.3-0.1,0.4-0.2c0-0.1-0.1-0.1-0.2-0.1
				c-1.2-0.5-2.5-1-3.7-1.5c-0.3-0.1-0.6-0.2-0.9-0.4c-0.1,0-0.1,0-0.2-0.1c0.1-0.4,0.3-0.7,0.4-1c0.2-0.5,0.4-1,0.6-1.4
				c0.3-0.8,0.6-1.5,0.9-2.3c0.1-0.1,0.1-0.3,0.2-0.4c0.1-0.1,0.2,0,0.3,0c0.7,0.3,1.3,0.5,2,0.8c0.9,0.4,1.8,0.7,2.7,1.1
				c0.1,0,0.2,0.1,0.2,0.2c0,0.1,0,0.2-0.1,0.2c-0.7,1.7-1.3,3.3-2,5c-0.4,1-0.8,2-1.2,3c-0.3,0.7-0.5,1.3-0.8,2
				C867.4,988,867.4,988.1,867.3,988.1z"/>
			<path d="M888,966.3c0.2,0.1,0.5,0.2,0.7,0.3c0.8,0.3,1.5,0.6,2.3,0.9c0.6,0.3,1.3,0.5,1.9,0.8c0.5,0.2,1,0.4,1.5,0.6
				c0.7,0.3,1.4,0.6,2.1,0.8c0.5,0.2,1,0.4,1.5,0.6c0.1,0,0.2,0.1,0.3,0.1c0,0,0.1,0,0.1,0.1c-0.4,0.2-0.8,0.4-1.2,0.6
				c-0.8,0.3-1.5,0.7-2.3,1c-1,0.4-2,0.9-2.9,1.3c-0.2,0.1-0.4,0.2-0.6,0.3c0,0-0.1,0-0.1-0.1c0-0.1,0-0.1,0-0.2
				c0.4-1.1,0.8-2.1,1.3-3.2c0.2-0.5,0.4-1.1,0.6-1.6c-0.4,0.1-0.7,0.3-1,0.4c-1.6,0.7-3.1,1.4-4.7,2c-0.4,0.2-0.8,0.3-1.2,0.5
				c-0.1,0-0.1,0.1-0.2,0.1c0,0,0,0,0,0c0-0.1,0-0.2,0-0.2c0.4-1.1,0.9-2.2,1.3-3.2c0.2-0.5,0.4-1,0.6-1.5
				C887.9,966.5,887.9,966.4,888,966.3z"/>
			<path d="M888,966.3c-0.1,0.2-0.2,0.4-0.2,0.6c-0.1,0.3-0.2,0.6-0.3,0.8c-0.3,0.7-0.6,1.4-0.8,2.1c-0.1,0.3-0.2,0.5-0.3,0.8
				c-0.1,0.3-0.2,0.6-0.3,0.8c-0.6-0.2-1.2-0.5-1.7-0.7c-0.5-0.2-0.9-0.4-1.4-0.6c-0.7-0.3-1.4-0.5-2-0.8c0-0.2,0.1-0.4,0.2-0.7
				c0.4-0.9,0.7-1.8,1.1-2.8c0.2-0.5,0.4-1.1,0.7-1.6c0-0.1,0-0.1,0.1-0.1c0.7,0.3,1.5,0.6,2.2,0.9C886,965.5,887,965.9,888,966.3
				C888,966.3,888,966.3,888,966.3z"/>
			<path d="M881.8,981.9c0,0.1-0.1,0.2-0.1,0.3c-0.3,0.7-0.6,1.4-0.8,2.1c-0.4,0.9-0.7,1.8-1.1,2.7c0,0,0,0,0,0
				c-0.3-0.1-0.6-0.2-0.9-0.3c-0.7-0.3-1.4-0.6-2.1-0.8c-0.6-0.3-1.3-0.5-2-0.8c-0.1,0-0.1-0.1-0.2-0.1c0.2-0.6,0.5-1.2,0.7-1.9
				c0.4-0.9,0.7-1.8,1.1-2.7c0.1-0.2,0.1-0.4,0.3-0.6c0.3,0,0.5,0.1,0.7,0.2c0.7,0.3,1.3,0.5,2,0.8c0.8,0.3,1.5,0.6,2.3,0.9
				C881.7,981.8,881.8,981.8,881.8,981.9z"/>
			<path d="M868.3,970.5c0.2-0.4,0.3-0.9,0.5-1.3c0.2-0.5,0.4-1,0.6-1.6c0.3-0.8,0.6-1.5,0.9-2.3c0.2,0.1,0.5,0.2,0.7,0.3
				c0.3,0.1,0.5,0.2,0.8,0.3c0.9,0.4,1.8,0.7,2.7,1.1c0.3,0.1,0.5,0.2,0.8,0.3c0.2,0.1,0.2,0.1,0.1,0.2c-0.1,0.2-0.1,0.4-0.2,0.6
				c-0.4,0.9-0.7,1.8-1.1,2.7c-0.2,0.5-0.4,1-0.6,1.5c0,0.1-0.1,0.2-0.1,0.2c-0.3,0-0.6-0.2-0.9-0.3c-0.9-0.4-1.8-0.7-2.8-1.1
				c-0.4-0.2-0.9-0.3-1.3-0.5C868.4,970.6,868.3,970.6,868.3,970.5z"/>
			<path d="M877.7,992.3c-0.1,0.3-0.2,0.5-0.3,0.8c-0.3,0.7-0.6,1.4-0.8,2.1c-0.3,0.7-0.6,1.4-0.8,2.1c-0.1,0.1-0.1,0.1-0.2,0.1
				c-0.7-0.3-1.4-0.6-2.1-0.8c-1-0.4-1.9-0.8-2.9-1.2c0-0.1,0.1-0.2,0.1-0.3c0.4-1,0.8-2.1,1.3-3.1c0.2-0.6,0.5-1.1,0.7-1.7
				c0.1-0.1,0.2,0,0.2,0c1.2,0.5,2.5,1,3.7,1.5c0.4,0.1,0.7,0.3,1.1,0.4C877.6,992.2,877.7,992.2,877.7,992.3z"/>
			<path d="M892.2,986c-0.7,1.7-1.4,3.5-2.1,5.2c-0.7-0.3-1.3-0.5-2-0.8c-0.4-0.2-0.9-0.3-1.3-0.5c-0.6-0.2-1.2-0.5-1.7-0.7
				c-0.1,0-0.1,0-0.2-0.1c0,0,0,0,0,0c0,0,0,0,0,0c0.1-0.2,0.2-0.4,0.3-0.6c0.3-0.7,0.6-1.4,0.8-2.1c0.3-0.8,0.6-1.6,0.9-2.4
				c0,0,0-0.1,0-0.1c0.1,0,0.3,0.1,0.4,0.1c0.7,0.3,1.5,0.6,2.2,0.9c0.8,0.3,1.6,0.6,2.4,1C892.1,985.9,892.2,985.9,892.2,986z"/>
			<path d="M868.3,970.5c0.1,0.1,0.2,0.1,0.3,0.1c0.3,0.1,0.6,0.2,0.9,0.3c0.5,0.2,1,0.4,1.5,0.6c0.7,0.3,1.5,0.6,2.2,0.9
				c0.1,0,0.2,0.1,0.3,0.1c0,0,0,0,0,0c0,0.1,0,0.2-0.1,0.3c-0.6,1.6-1.3,3.1-1.9,4.7c0,0,0,0.1-0.1,0.1c0,0,0,0-0.1,0
				c-0.1-0.1-0.3-0.2-0.5-0.2c-1-0.4-2-0.8-2.9-1.2c-0.6-0.2-1.1-0.4-1.7-0.7c0,0-0.1,0-0.1,0c0,0,0,0,0,0c0,0,0,0,0-0.1
				c0.3-0.8,0.6-1.6,0.9-2.3c0.3-0.9,0.7-1.7,1-2.6C868.2,970.6,868.2,970.6,868.3,970.5C868.3,970.5,868.3,970.5,868.3,970.5z"/>
			<path d="M891.2,973.5C891.2,973.5,891.2,973.5,891.2,973.5c0.4,0.2,0.7,0.3,1,0.4c1.1,0.4,2.2,0.9,3.4,1.3
				c0.3,0.1,0.5,0.2,0.8,0.3c-0.1,0.3-0.2,0.6-0.4,1c-0.2,0.6-0.5,1.2-0.7,1.7c-0.3,0.8-0.6,1.6-1,2.4c0,0.1,0,0.1-0.1,0.1
				c-0.3,0-0.5-0.2-0.8-0.3c-0.5-0.2-1.1-0.4-1.6-0.6c-0.9-0.3-1.7-0.7-2.6-1c-0.1,0-0.1,0-0.2-0.1c0.1-0.2,0.2-0.5,0.3-0.7
				c0.2-0.5,0.4-1.1,0.6-1.6c0.4-0.9,0.7-1.8,1.1-2.6C891.1,973.7,891.1,973.6,891.2,973.5C891.1,973.5,891.1,973.5,891.2,973.5z"/>
			<path d="M889.1,978.8c0.2,0,0.4,0.1,0.6,0.2c0.3,0.1,0.7,0.3,1,0.4c0.7,0.3,1.4,0.5,2,0.8c0.4,0.2,0.9,0.3,1.3,0.5
				c0.1,0,0.2,0.1,0.2,0.1c-0.1,0.4-0.3,0.7-0.4,1.1c-0.2,0.5-0.4,1-0.6,1.4c-0.3,0.7-0.6,1.5-0.9,2.2c-0.1,0.1-0.1,0.3-0.2,0.4
				c-0.2,0-0.3-0.1-0.4-0.1c-0.5-0.2-0.9-0.4-1.4-0.6c-0.2-0.1-0.5-0.2-0.7-0.3c-0.6-0.2-1.1-0.5-1.7-0.7c-0.3-0.1-0.5-0.2-0.8-0.3
				c-0.1,0-0.1,0-0.2-0.1c0.3-0.7,0.6-1.5,0.9-2.2c0.3-0.7,0.5-1.3,0.8-2C888.8,979.4,888.9,979.1,889.1,978.8z"/>
			<path d="M877.7,992.3c-0.2-0.1-0.5-0.2-0.7-0.3c-0.9-0.4-1.8-0.7-2.7-1.1c-0.5-0.2-1.1-0.4-1.6-0.7c-0.1,0-0.1-0.1-0.2-0.1
				c0,0,0,0,0,0c0.1-0.4,0.3-0.7,0.4-1.1c0.2-0.5,0.4-1,0.6-1.5c0.3-0.8,0.6-1.6,0.9-2.3c0-0.1,0.1-0.2,0.1-0.2c0,0,0,0,0-0.1
				c0,0,0,0,0.1,0c0,0,0.1,0.1,0.1,0.1c0.5,0.2,1,0.4,1.5,0.6c1.1,0.4,2.1,0.9,3.2,1.3c0.1,0,0.2,0.1,0.4,0.1c0,0,0,0,0,0.1
				c-0.3,0.8-0.6,1.5-0.9,2.3c-0.3,0.7-0.6,1.4-0.8,2.1C877.9,991.8,877.9,992.1,877.7,992.3L877.7,992.3z"/>
			<path d="M884.9,989.1C884.9,989.1,884.9,989.2,884.9,989.1c-0.2,0.6-0.4,1.1-0.6,1.7c-0.3,0.9-0.7,1.8-1,2.6
				c-0.1,0.3-0.2,0.5-0.3,0.8c0,0,0,0.1-0.1,0.1c-0.2-0.4-0.3-0.8-0.5-1.2c-0.2-0.6-0.5-1.1-0.7-1.7c-0.3-0.7-0.6-1.4-0.9-2.2
				c-0.3-0.7-0.6-1.3-0.8-1.9c0-0.1-0.1-0.2-0.1-0.3c0,0,0,0,0,0c0,0,0,0,0,0c0.6,0.2,1.2,0.5,1.8,0.7c0.6,0.2,1.2,0.5,1.8,0.7
				C883.9,988.7,884.4,988.9,884.9,989.1z"/>
			<path d="M879.8,987.1c0.1,0.2,0.2,0.5,0.3,0.7c0.1,0.2,0.2,0.4,0.3,0.6c0.2,0.3,0.3,0.7,0.5,1c0.1,0.2,0.2,0.4,0.3,0.6
				c0.1,0.3,0.3,0.7,0.5,1c0.1,0.2,0.2,0.4,0.3,0.7c0.1,0.2,0.2,0.4,0.2,0.6c0.1,0.2,0.2,0.5,0.3,0.7c0.1,0.3,0.3,0.6,0.4,0.9
				c0,0.1,0.1,0.1,0,0.2c-0.3-0.1-0.6-0.2-0.9-0.3c-0.5-0.2-1-0.4-1.6-0.6c-0.7-0.3-1.4-0.5-2.1-0.8c-0.2-0.1-0.4-0.1-0.6-0.2
				c0-0.1,0.1-0.3,0.1-0.4c0.3-0.8,0.6-1.5,0.9-2.3c0.3-0.7,0.5-1.4,0.8-2C879.6,987.4,879.6,987.2,879.8,987.1z"/>
			<path d="M874.5,985c0,0.1,0,0.2-0.1,0.3c-0.2,0.6-0.5,1.2-0.7,1.7c-0.3,0.9-0.7,1.7-1,2.6c0,0.1-0.1,0.2-0.1,0.3
				c0,0.1,0,0.1-0.1,0.2c-0.6-0.2-1.2-0.5-1.8-0.7c-0.7-0.3-1.4-0.6-2.1-0.8c-0.4-0.2-0.8-0.3-1.2-0.5c0-0.1,0.1-0.1,0.2-0.2
				c0.6-0.3,1.3-0.6,1.9-0.8c1.6-0.7,3.2-1.4,4.8-2.1C874.3,985.1,874.4,985,874.5,985z"/>
			<path d="M866.2,975.7C866.2,975.7,866.2,975.7,866.2,975.7c-0.3-0.1-0.7-0.2-1-0.4c-0.9-0.4-1.8-0.7-2.7-1.1
				c-0.4-0.2-0.9-0.4-1.3-0.5c-0.1,0-0.1,0-0.2-0.1c0.2-0.4,0.3-0.9,0.5-1.3c0.2-0.5,0.4-1,0.6-1.6c0.3-0.7,0.6-1.5,0.9-2.2
				c0,0,0,0,0,0c0.1,0,0.1,0.1,0.1,0.2c0.5,1.3,1.1,2.5,1.6,3.8c0.4,0.9,0.8,1.8,1.2,2.7C866.1,975.3,866.2,975.5,866.2,975.7z"/>
			<path d="M864.2,980.9c0.4,0.2,0.7,0.3,1.1,0.5c0.4,0.2,0.8,0.3,1.2,0.5c0.4,0.1,0.7,0.3,1.1,0.4c0.5,0.2,0.9,0.4,1.4,0.5
				c0.1,0,0.2,0,0.3,0.2c-0.1,0.1-0.3,0.2-0.5,0.2c-0.8,0.4-1.7,0.7-2.5,1.1c-0.5,0.2-1.1,0.5-1.6,0.7c-0.8,0.4-1.7,0.7-2.5,1.1
				c0,0-0.1,0-0.1,0c0-0.1,0-0.1,0-0.2c0.4-0.9,0.7-1.8,1.1-2.7c0.3-0.7,0.5-1.4,0.8-2C864.1,981.1,864.1,981,864.2,980.9z"/>
			<path d="M881.8,981.9c-0.6-0.2-1.1-0.4-1.7-0.7c-0.7-0.3-1.4-0.5-2-0.8c-0.5-0.2-1-0.4-1.5-0.6c0,0,0,0,0-0.1c0,0,0,0,0.1,0
				c0.7-0.3,1.4-0.6,2.1-0.9c0.6-0.3,1.3-0.5,1.9-0.8c0.6-0.3,1.2-0.5,1.9-0.8c0.3-0.1,0.7-0.3,1-0.4c0.1,0,0.2-0.1,0.3,0
				c-0.2,0.5-0.4,1-0.6,1.6c-0.3,0.7-0.5,1.4-0.8,2.1C882.2,980.8,882.1,981.3,881.8,981.9C881.8,981.8,881.8,981.9,881.8,981.9z"/>
			<path d="M882.8,964.2c-0.2,0.6-0.5,1.2-0.7,1.9c-0.3,0.7-0.6,1.4-0.9,2.1c-0.2,0.4-0.3,0.8-0.5,1.2c0,0,0,0-0.1,0
				c-0.2-0.4-0.4-0.8-0.5-1.2c-0.8-1.9-1.7-3.8-2.5-5.7c0-0.1-0.1-0.2-0.1-0.3c0-0.1,0.1,0,0.1,0c0.5,0.2,1.1,0.4,1.6,0.6
				c0.2,0.1,0.5,0.2,0.7,0.3C880.9,963.5,881.8,963.9,882.8,964.2C882.8,964.2,882.8,964.2,882.8,964.2z"/>
			<path d="M877.6,962.2c0,0,0.1,0.1,0.1,0.1c0.3,0.7,0.6,1.3,0.9,2c0.4,0.9,0.8,1.9,1.2,2.8c0.3,0.7,0.6,1.4,0.9,2
				c0,0.1,0.1,0.1,0,0.2c-1.7-0.7-3.4-1.4-5.1-2c0.1-0.2,0.2-0.5,0.3-0.7c0.2-0.5,0.4-0.9,0.6-1.4c0.3-0.8,0.6-1.5,0.9-2.3
				C877.4,962.7,877.5,962.5,877.6,962.2z"/>
			<path d="M883.9,976.7c-0.2,0-0.3,0.1-0.5,0.2c-0.3,0.1-0.6,0.3-0.9,0.4c-1,0.4-1.9,0.8-2.9,1.2c-0.7,0.3-1.4,0.6-2.1,0.9
				c-0.2,0.1-0.5,0.2-0.7,0.3c0,0-0.1,0-0.1,0c0-0.1,0-0.2,0-0.2c0.6-1.6,1.3-3.2,1.9-4.8c0,0,0,0,0-0.1c0,0,0,0,0,0
				c0.3,0.1,0.6,0.2,0.9,0.4c0.2,0.1,0.5,0.2,0.7,0.3c0.7,0.3,1.4,0.6,2.1,0.8C882.9,976.3,883.3,976.5,883.9,976.7
				C883.8,976.7,883.9,976.7,883.9,976.7z"/>
			<path d="M871.4,977.8c0.1-0.4,0.3-0.8,0.4-1.1c0.2-0.5,0.4-1,0.6-1.4c0.3-0.7,0.6-1.5,0.9-2.2c0.1-0.1,0.1-0.3,0.2-0.4
				c0,0,0.1,0,0.1,0c0.8,0.3,1.6,0.6,2.3,0.9c0.6,0.2,1.2,0.5,1.7,0.7c0.3,0.1,0.7,0.2,1,0.4c0,0,0,0,0,0c0,0.1-0.1,0.1-0.2,0.1
				c-1.9,0.8-3.8,1.7-5.8,2.5C872.3,977.4,871.9,977.7,871.4,977.8C871.5,977.8,871.5,977.8,871.4,977.8z"/>
			<path d="M874.5,985c-0.7,0.3-1.5,0.6-2.2,1c-1.1,0.5-2.1,0.9-3.2,1.4c-0.6,0.2-1.1,0.5-1.7,0.7c0,0-0.1,0-0.1,0.1
				c0,0-0.1,0-0.1,0c0.1-0.1,0.2-0.3,0.2-0.4c0.3-0.8,0.6-1.5,0.9-2.3c0.1-0.2,0.2-0.4,0.2-0.6c0.3-0.6,0.5-1.2,0.8-1.8
				c0.1,0,0.2,0,0.2,0c1.3,0.5,2.5,1,3.8,1.5c0.3,0.1,0.6,0.3,0.9,0.4C874.4,984.9,874.5,984.9,874.5,985
				C874.5,985,874.5,985,874.5,985z"/>
			<path d="M896.3,975.6c-0.1,0.1-0.2,0-0.2,0c-0.3-0.1-0.6-0.2-0.9-0.4c-0.5-0.2-1-0.4-1.5-0.6c-0.5-0.2-1.1-0.4-1.6-0.7
				c-0.3-0.1-0.6-0.2-0.9-0.4c-0.1,0,0,0,0-0.1c0.4-0.2,0.7-0.3,1.1-0.5c0.3-0.1,0.6-0.3,0.9-0.4c0.4-0.2,0.8-0.4,1.2-0.5
				c0.3-0.1,0.6-0.3,1-0.4c0.7-0.3,1.5-0.6,2.2-1c0.2-0.1,0.4-0.2,0.6-0.3c0,0,0.1,0,0.1,0c-0.4,1.1-0.9,2.2-1.3,3.3
				C896.8,974.3,896.6,974.9,896.3,975.6C896.4,975.5,896.4,975.5,896.3,975.6z"/>
			<path d="M866.2,975.7c-0.1-0.2-0.2-0.5-0.3-0.7c-0.6-1.3-1.1-2.6-1.7-3.8c-0.4-0.9-0.7-1.7-1.1-2.6c0,0,0,0,0-0.1
				c0.2,0,0.3,0.1,0.5,0.1c0.5,0.2,1,0.4,1.6,0.6c0.7,0.3,1.4,0.6,2.1,0.8c0.4,0.1,0.7,0.3,1.1,0.4c-0.1,0.3-0.2,0.6-0.4,1
				c-0.3,0.7-0.6,1.5-0.9,2.2C866.8,974.3,866.5,975,866.2,975.7C866.3,975.6,866.2,975.6,866.2,975.7z"/>
			<path d="M891.2,973.5C891.2,973.5,891.1,973.5,891.2,973.5c-0.4-0.1-0.9-0.2-1.3-0.4c-0.7-0.3-1.5-0.6-2.2-0.9
				c-0.5-0.2-1-0.4-1.5-0.6c-0.1,0-0.2,0-0.2-0.1c0.2-0.1,0.5-0.2,0.7-0.3c1.1-0.5,2.2-1,3.3-1.4c0.9-0.4,1.7-0.7,2.6-1.1
				c0.2-0.1,0.3-0.2,0.6-0.2c-0.2,0.6-0.5,1.1-0.7,1.7c-0.2,0.6-0.4,1.1-0.7,1.7C891.6,972.4,891.4,972.9,891.2,973.5z"/>
			<path d="M876.6,979.8c-0.3-0.1-0.6-0.2-0.9-0.3c-0.5-0.2-1-0.4-1.6-0.6c-0.7-0.3-1.4-0.6-2.1-0.8c-0.2-0.1-0.4-0.1-0.6-0.2
				c0.3-0.2,0.6-0.3,0.9-0.4c1.4-0.6,2.8-1.2,4.2-1.8c0.7-0.3,1.4-0.6,2.1-0.9c0,0,0,0,0.1,0c0,0.2-0.1,0.4-0.2,0.6
				c-0.2,0.5-0.4,1-0.6,1.5c-0.3,0.7-0.6,1.4-0.9,2.2C876.9,979.2,876.8,979.5,876.6,979.8C876.6,979.8,876.6,979.8,876.6,979.8z"/>
		</g>
		<text transform="matrix(0.9794 0.2021 -0.2021 0.9794 1127.7023 990.7838)"><tspan x="0" y="0" class="st22 st23 st24">J&apos;changerai ma mre </tspan><tspan x="0" y="10.4" class="st22 st23 st24">contre _________</tspan></text>
		<text transform="matrix(0.9826 -0.1855 0.1855 0.9826 1008.5263 1001.4952)" class="st23 st24">Lucas, prof de oueb</text>
		<text transform="matrix(0.8688 -0.4951 0.4951 0.8688 902.6774 1045.9122)" class="st23 st24">Mes couilles en ski</text>
		<text transform="matrix(0.6515 -0.7586 0.7586 0.6515 834.6503 1104.601)"><tspan x="0" y="0" class="st23 st24">Une valse </tspan><tspan x="0" y="10.4" class="st23 st24">avec Laporte</tspan></text>
		<g>
			<path d="M785,1056.5c-0.5,0-1-0.1-1.4-0.1c-0.4,0-0.7-0.1-1.1-0.1c-0.7,0-1.4-0.1-2.2-0.1c-0.2,0-0.5,0-0.7-0.1c0,0-0.1,0-0.1,0
				c0-0.1,0.1-0.2,0.2-0.2c1.8-1.5,3.5-3.1,5.2-4.6c0.1-0.1,0.2-0.2,0.3-0.3c-0.1-0.1-0.1,0-0.2,0c-1.3-0.1-2.7-0.2-4-0.3
				c-0.3,0-0.7,0-1-0.1c-0.1,0-0.1,0-0.2-0.1c0-0.4,0-0.7,0.1-1.1c0-0.5,0.1-1,0.1-1.5c0.1-0.8,0.1-1.6,0.2-2.4c0-0.2,0-0.3,0-0.5
				c0.1-0.1,0.2-0.1,0.3-0.1c0.7,0,1.4,0.1,2.2,0.1c1,0.1,1.9,0.1,2.9,0.2c0.1,0,0.2,0,0.3,0.1c0,0.1,0,0.2,0,0.2
				c-0.1,1.8-0.2,3.5-0.4,5.3c-0.1,1.1-0.1,2.2-0.2,3.3c0,0.7-0.1,1.4-0.2,2.1C785.1,1056.4,785.1,1056.5,785,1056.5z"/>
			<path d="M798.1,1029.4c0.2,0,0.5,0,0.7,0c0.8,0.1,1.6,0.1,2.5,0.2c0.7,0,1.4,0.1,2.1,0.1c0.5,0,1.1,0.1,1.6,0.1
				c0.7,0.1,1.5,0.1,2.2,0.2c0.5,0,1.1,0.1,1.6,0.1c0.1,0,0.2,0,0.3,0c0,0,0.1,0,0.1,0.1c-0.3,0.3-0.7,0.6-1,0.9
				c-0.6,0.5-1.2,1.1-1.9,1.6c-0.8,0.7-1.6,1.4-2.4,2.1c-0.2,0.1-0.3,0.3-0.5,0.4c0,0-0.1,0-0.1,0c0-0.1,0-0.1,0-0.2
				c0.1-1.1,0.2-2.3,0.2-3.4c0-0.6,0.1-1.1,0.1-1.8c-0.3,0.2-0.6,0.5-0.8,0.7c-1.3,1.1-2.6,2.2-3.8,3.4c-0.3,0.3-0.7,0.6-1,0.9
				c-0.1,0.1-0.1,0.1-0.2,0.1c0,0,0,0,0,0c-0.1-0.1,0-0.2,0-0.2c0.1-1.2,0.2-2.3,0.2-3.5c0-0.5,0.1-1.1,0.1-1.6
				C798,1029.6,798,1029.5,798.1,1029.4z"/>
			<path d="M798.1,1029.4c0,0.2,0,0.4,0,0.6c0,0.3,0,0.6-0.1,0.9c-0.1,0.8-0.1,1.5-0.2,2.3c0,0.3,0,0.6-0.1,0.9c0,0.3,0,0.6-0.1,0.9
				c-0.6,0-1.2-0.1-1.9-0.1c-0.5,0-1-0.1-1.5-0.1c-0.7,0-1.5-0.1-2.2-0.2c-0.1-0.2,0-0.5,0-0.7c0.1-1,0.1-2,0.2-3
				c0-0.6,0.1-1.2,0.1-1.8c0-0.1,0-0.1,0.1-0.2c0.8,0,1.6,0.1,2.4,0.2C795.9,1029.3,797,1029.3,798.1,1029.4
				C798.1,1029.4,798.1,1029.4,798.1,1029.4z"/>
			<path d="M796.9,1046.1c0,0.1,0,0.2,0,0.4c-0.1,0.8-0.1,1.5-0.2,2.3c-0.1,1-0.1,2-0.2,2.9c0,0,0,0,0,0c-0.3,0-0.7,0-1,0
				c-0.8-0.1-1.5-0.1-2.3-0.2c-0.7,0-1.4-0.1-2.1-0.1c-0.1,0-0.2,0-0.2-0.1c0-0.7,0.1-1.3,0.1-2c0.1-1,0.1-2,0.2-2.9
				c0-0.2,0-0.4,0.1-0.6c0.3-0.1,0.5,0,0.8,0c0.7,0.1,1.5,0.1,2.2,0.2c0.8,0,1.6,0.1,2.5,0.2
				C796.8,1046.1,796.9,1046.1,796.9,1046.1z"/>
			<path d="M780.6,1039.4c0-0.5,0.1-0.9,0.1-1.4c0-0.6,0.1-1.1,0.1-1.7c0.1-0.8,0.1-1.6,0.2-2.5c0.3,0,0.5,0,0.8,0
				c0.3,0,0.6,0,0.9,0.1c1,0.1,2,0.1,2.9,0.2c0.3,0,0.6,0,0.9,0.1c0.2,0,0.2,0,0.2,0.2c0,0.2,0,0.4,0,0.6c-0.1,1-0.1,1.9-0.2,2.9
				c0,0.5-0.1,1.1-0.1,1.6c0,0.1,0,0.2,0,0.3c-0.3,0.1-0.6,0-1,0c-1-0.1-2-0.1-3-0.2c-0.5,0-0.9-0.1-1.4-0.1
				C780.8,1039.5,780.6,1039.5,780.6,1039.4z"/>
			<path d="M796.2,1057.3c0,0.3-0.1,0.6-0.1,0.9c-0.1,0.8-0.1,1.5-0.1,2.3c-0.1,0.8-0.1,1.5-0.2,2.3c0,0.2,0,0.1-0.2,0.1
				c-0.8,0-1.5-0.1-2.3-0.1c-1-0.1-2.1-0.1-3.1-0.2c0-0.1,0-0.2,0-0.3c0.1-1.1,0.2-2.3,0.2-3.4c0-0.6,0.1-1.2,0.1-1.8
				c0.1-0.1,0.1-0.1,0.2-0.1c1.3,0.1,2.6,0.2,4,0.3c0.4,0,0.8,0,1.2,0.1C796.1,1057.3,796.2,1057.2,796.2,1057.3z"/>
			<path d="M808.1,1046.9c-0.1,1.9-0.2,3.7-0.4,5.6c-0.7-0.1-1.4-0.1-2.1-0.1c-0.5,0-1-0.1-1.4-0.1c-0.6,0-1.2-0.1-1.9-0.1
				c-0.1,0-0.1,0-0.2,0c0,0,0,0,0,0c0,0,0,0,0,0c0-0.2,0-0.4,0.1-0.7c0.1-0.8,0.1-1.5,0.1-2.3c0.1-0.9,0.1-1.7,0.2-2.6
				c0,0,0-0.1,0-0.1c0.1,0,0.3,0,0.4,0c0.8,0.1,1.6,0.1,2.4,0.2c0.9,0.1,1.7,0.1,2.6,0.2C808,1046.8,808.1,1046.8,808.1,1046.9z"/>
			<path d="M780.6,1039.4c0.1,0.1,0.2,0,0.3,0c0.3,0,0.6,0,0.9,0.1c0.5,0,1.1,0.1,1.6,0.1c0.8,0.1,1.6,0.1,2.4,0.2
				c0.1,0,0.2,0,0.3,0c0,0,0,0,0,0c0.1,0.1,0,0.2,0,0.3c-0.1,1.7-0.2,3.4-0.3,5.1c0,0,0,0.1,0,0.1c0,0,0,0,0,0
				c-0.2-0.1-0.3-0.1-0.5-0.1c-1-0.1-2.1-0.1-3.1-0.2c-0.6,0-1.2-0.1-1.8-0.1c0,0-0.1,0-0.1,0c0,0,0,0,0,0c0,0,0,0,0-0.1
				c0-0.8,0.1-1.7,0.2-2.5c0.1-0.9,0.1-1.9,0.2-2.8C780.5,1039.6,780.5,1039.5,780.6,1039.4C780.6,1039.4,780.6,1039.4,780.6,1039.4
				z"/>
			<path d="M803.3,1035.3C803.3,1035.3,803.4,1035.3,803.3,1035.3c0.4,0.1,0.8,0.1,1.1,0.1c1.2,0.1,2.4,0.2,3.6,0.2
				c0.3,0,0.6,0.1,0.9,0c0,0.3,0,0.7-0.1,1c0,0.6-0.1,1.2-0.1,1.9c-0.1,0.9-0.1,1.7-0.2,2.6c0,0.1,0,0.1,0,0.2c-0.3,0.1-0.6,0-0.9,0
				c-0.6,0-1.1-0.1-1.7-0.1c-0.9-0.1-1.9-0.1-2.8-0.2c-0.1,0-0.1,0-0.2,0c0-0.3,0-0.5,0-0.8c0-0.6,0.1-1.2,0.1-1.7
				c0.1-0.9,0.1-1.9,0.2-2.8C803.3,1035.5,803.3,1035.5,803.3,1035.3C803.3,1035.3,803.2,1035.3,803.3,1035.3z"/>
			<path d="M802.9,1041c0.2,0,0.4,0,0.7,0c0.4,0,0.7,0,1.1,0.1c0.7,0.1,1.5,0.1,2.2,0.2c0.5,0,0.9,0.1,1.4,0.1c0.1,0,0.2,0,0.3,0
				c0,0.4,0,0.8-0.1,1.2c0,0.5-0.1,1-0.1,1.5c-0.1,0.8-0.1,1.6-0.2,2.4c0,0.1,0,0.3,0,0.4c-0.1,0-0.3,0-0.4,0c-0.5,0-1-0.1-1.5-0.1
				c-0.3,0-0.5,0-0.8,0c-0.6,0-1.2-0.1-1.8-0.1c-0.3,0-0.6,0-0.8-0.1c-0.1,0-0.2,0-0.2,0c0.1-0.8,0.1-1.6,0.2-2.4
				c0-0.7,0.1-1.4,0.1-2.1C802.9,1041.7,802.9,1041.3,802.9,1041z"/>
			<path d="M796.2,1057.3c-0.2,0-0.5,0-0.7-0.1c-1-0.1-1.9-0.1-2.9-0.2c-0.6,0-1.2-0.1-1.8-0.1c-0.1,0-0.1,0-0.2,0c0,0,0,0,0,0
				c0-0.4,0-0.8,0.1-1.2c0-0.5,0.1-1,0.1-1.6c0.1-0.8,0.1-1.7,0.2-2.5c0-0.1,0-0.2,0-0.2c0,0,0,0,0-0.1c0,0,0,0,0.1,0
				c0,0,0.1,0,0.2,0c0.5,0,1.1,0.1,1.6,0.1c1.1,0.1,2.3,0.2,3.4,0.2c0.1,0,0.3,0,0.4,0c0,0,0,0,0,0.1c0,0.8-0.1,1.7-0.2,2.5
				c0,0.7-0.1,1.5-0.1,2.2C796.3,1056.8,796.3,1057,796.2,1057.3L796.2,1057.3z"/>
			<path d="M802.1,1052.1C802.1,1052.1,802.2,1052.1,802.1,1052.1c0,0.6-0.1,1.2-0.1,1.8c-0.1,0.9-0.1,1.9-0.2,2.8
				c0,0.3,0,0.6-0.1,0.9c0,0,0,0.1-0.1,0.1c-0.3-0.3-0.6-0.6-0.8-0.9c-0.4-0.5-0.8-0.9-1.2-1.4c-0.5-0.6-1-1.2-1.5-1.8
				c-0.5-0.5-0.9-1.1-1.4-1.6c-0.1-0.1-0.1-0.1-0.1-0.2c0,0,0,0,0,0c0,0,0,0,0,0c0.6,0,1.3,0.1,1.9,0.1c0.6,0,1.3,0.1,1.9,0.1
				C801,1052,801.6,1052.1,802.1,1052.1z"/>
			<path d="M796.6,1051.7c0.2,0.2,0.4,0.4,0.5,0.6c0.1,0.2,0.3,0.3,0.4,0.5c0.3,0.3,0.5,0.6,0.8,0.8c0.2,0.2,0.3,0.4,0.4,0.5
				c0.2,0.3,0.5,0.5,0.7,0.8c0.1,0.2,0.3,0.4,0.5,0.6c0.1,0.2,0.3,0.3,0.4,0.5c0.2,0.2,0.4,0.4,0.5,0.6c0.2,0.3,0.5,0.5,0.7,0.8
				c0.1,0.1,0.1,0.1,0.1,0.2c-0.3,0-0.6,0-0.9-0.1c-0.6,0-1.1-0.1-1.7-0.1c-0.7-0.1-1.5-0.1-2.2-0.2c-0.2,0-0.4,0-0.6,0
				c0-0.1,0-0.3,0-0.4c0.1-0.8,0.1-1.6,0.2-2.5c0.1-0.7,0.1-1.5,0.2-2.2C796.6,1052.1,796.5,1051.9,796.6,1051.7z"/>
			<path d="M791,1051.4c0.1,0.1,0,0.2,0,0.3c0,0.6-0.1,1.2-0.1,1.9c-0.1,0.9-0.1,1.9-0.2,2.8c0,0.1,0,0.2,0,0.4c0,0.1,0,0.1-0.1,0.2
				c-0.6,0-1.3-0.1-1.9-0.1c-0.8-0.1-1.5-0.1-2.3-0.2c-0.4,0-0.9-0.1-1.3-0.1c-0.1-0.1,0-0.2,0.1-0.2c0.5-0.5,1.1-0.9,1.6-1.4
				c1.3-1.1,2.6-2.3,3.9-3.4C790.8,1051.5,790.8,1051.4,791,1051.4z"/>
			<path d="M780.2,1045C780.2,1045,780.2,1045,780.2,1045c-0.3,0-0.7,0-1,0c-1-0.1-1.9-0.1-2.9-0.2c-0.5,0-1-0.1-1.4-0.1
				c-0.1,0-0.1,0-0.2,0c0-0.5,0.1-0.9,0.1-1.4c0-0.6,0.1-1.1,0.1-1.7c0.1-0.8,0.1-1.6,0.2-2.4c0,0,0,0,0-0.1c0.1,0,0.1,0.1,0.2,0.1
				c0.9,1,1.8,2.1,2.7,3.1c0.6,0.7,1.3,1.5,1.9,2.2C780,1044.7,780.2,1044.8,780.2,1045z"/>
			<path d="M779.9,1050.6c0.4,0.1,0.8,0.1,1.2,0.1c0.4,0,0.9,0.1,1.3,0.1c0.4,0,0.8,0.1,1.2,0.1c0.5,0,1,0.1,1.5,0.1
				c0.1,0,0.2,0,0.3,0.1c-0.1,0.1-0.3,0.2-0.4,0.4c-0.7,0.6-1.4,1.2-2.1,1.8c-0.4,0.4-0.9,0.8-1.3,1.1c-0.7,0.6-1.4,1.2-2.1,1.8
				c0,0-0.1,0-0.1,0.1c0,0,0-0.1,0-0.2c0.1-0.9,0.1-1.9,0.2-2.8c0-0.7,0.1-1.5,0.1-2.2C779.8,1050.8,779.8,1050.7,779.9,1050.6z"/>
			<path d="M796.9,1046.1c-0.6,0-1.2-0.1-1.8-0.1c-0.7,0-1.5-0.1-2.2-0.1c-0.5,0-1-0.1-1.6-0.1c0,0,0,0,0-0.1c0,0,0,0,0-0.1
				c0.6-0.5,1.2-1,1.8-1.5c0.5-0.4,1-0.9,1.6-1.4c0.5-0.4,1-0.9,1.5-1.3c0.3-0.2,0.5-0.5,0.8-0.7c0.1-0.1,0.1-0.1,0.3-0.1
				c0,0.6-0.1,1.1-0.1,1.7c0,0.7-0.1,1.5-0.1,2.2c0,0.5-0.1,1-0.1,1.5C797,1046.1,797,1046.1,796.9,1046.1z"/>
			<path d="M792.5,1029c0,0.7-0.1,1.3-0.1,2c-0.1,0.8-0.1,1.5-0.2,2.3c0,0.4-0.1,0.9-0.1,1.3c0,0,0,0-0.1,0c-0.3-0.3-0.6-0.6-0.9-1
				c-1.4-1.6-2.7-3.1-4.1-4.7c-0.1-0.1-0.1-0.1-0.2-0.2c0-0.1,0.1,0,0.1,0c0.6,0,1.1,0.1,1.7,0.1c0.3,0,0.5,0,0.8,0.1
				C790.5,1028.9,791.5,1029,792.5,1029C792.5,1029,792.5,1029,792.5,1029z"/>
			<path d="M786.9,1028.7c0,0,0.1,0.1,0.1,0.1c0.5,0.5,0.9,1.1,1.4,1.6c0.7,0.8,1.4,1.5,2,2.3c0.5,0.6,1,1.1,1.5,1.7
				c0,0.1,0.1,0.1,0.1,0.2c-1.8-0.1-3.7-0.2-5.5-0.4c0-0.3,0-0.5,0-0.8c0-0.5,0.1-1,0.1-1.5c0.1-0.8,0.1-1.6,0.2-2.4
				C786.9,1029.2,786.9,1029,786.9,1028.7z"/>
			<path d="M797.3,1040.6c-0.2,0-0.3,0.2-0.4,0.3c-0.3,0.2-0.5,0.4-0.8,0.7c-0.8,0.7-1.6,1.4-2.4,2.1c-0.6,0.5-1.2,1-1.7,1.5
				c-0.2,0.2-0.4,0.3-0.6,0.5c0,0,0,0-0.1,0c-0.1-0.1,0-0.2,0-0.2c0.1-1.7,0.2-3.5,0.3-5.2c0,0,0,0,0-0.1c0,0,0,0,0,0
				c0.3,0,0.7,0,1,0.1c0.3,0,0.5,0,0.8,0.1c0.8,0.1,1.5,0.1,2.3,0.1C796.2,1040.5,796.7,1040.5,797.3,1040.6
				C797.3,1040.6,797.3,1040.6,797.3,1040.6z"/>
			<path d="M785.8,1045.4c0-0.4,0-0.8,0.1-1.2c0-0.5,0.1-1,0.1-1.5c0.1-0.8,0.1-1.6,0.2-2.3c0-0.1,0-0.3,0-0.4c0,0,0.1,0,0.1,0
				c0.8,0.1,1.7,0.1,2.5,0.2c0.6,0,1.2,0.1,1.9,0.1c0.4,0,0.7,0,1.1,0.1c0,0,0,0,0,0c0,0.1-0.1,0.1-0.1,0.2
				c-1.6,1.4-3.1,2.8-4.7,4.1C786.5,1044.8,786.2,1045.1,785.8,1045.4C785.8,1045.4,785.8,1045.4,785.8,1045.4z"/>
			<path d="M791,1051.4c-0.6,0.5-1.2,1.1-1.8,1.6c-0.9,0.8-1.7,1.5-2.6,2.3c-0.5,0.4-0.9,0.8-1.4,1.2c0,0-0.1,0.1-0.1,0.1
				c0,0-0.1,0-0.1,0c0.1-0.2,0.1-0.3,0.1-0.5c0.1-0.8,0.1-1.6,0.2-2.5c0-0.2,0-0.4,0-0.7c0.1-0.7,0.1-1.3,0.2-2c0.1-0.1,0.2,0,0.2,0
				c1.3,0.1,2.7,0.2,4,0.3c0.3,0,0.7,0.1,1,0.1C790.8,1051.3,790.9,1051.3,791,1051.4C791,1051.4,791,1051.4,791,1051.4z"/>
			<path d="M808.9,1035.7c0,0.1-0.1,0.1-0.2,0.1c-0.3-0.1-0.6,0-0.9-0.1c-0.5,0-1.1-0.1-1.6-0.1c-0.6,0-1.2-0.1-1.8-0.1
				c-0.3,0-0.6,0-1-0.1c-0.1,0-0.1,0,0-0.1c0.3-0.3,0.6-0.5,0.9-0.8c0.3-0.2,0.5-0.4,0.8-0.7c0.3-0.3,0.7-0.6,1-0.9
				c0.3-0.2,0.5-0.5,0.8-0.7c0.6-0.5,1.2-1.1,1.8-1.6c0.2-0.1,0.3-0.3,0.5-0.4c0,0,0.1,0,0.1,0c-0.1,1.2-0.2,2.3-0.2,3.5
				C809,1034.4,808.9,1035,808.9,1035.7C808.9,1035.6,808.9,1035.7,808.9,1035.7z"/>
			<path d="M780.2,1045c-0.2-0.2-0.3-0.4-0.5-0.6c-0.9-1-1.8-2.1-2.7-3.1c-0.6-0.7-1.2-1.4-1.9-2.1c0,0,0,0,0,0c0.2-0.1,0.3,0,0.5,0
				c0.6,0,1.1,0.1,1.7,0.1c0.7,0.1,1.5,0.1,2.2,0.2c0.4,0,0.8,0,1.2,0.1c0,0.3,0,0.7-0.1,1c0,0.8-0.1,1.6-0.2,2.4
				C780.3,1043.5,780.3,1044.2,780.2,1045C780.2,1044.9,780.2,1045,780.2,1045z"/>
			<path d="M803.3,1035.3C803.3,1035.3,803.3,1035.4,803.3,1035.3c-0.5,0.1-0.9,0-1.3,0c-0.8-0.1-1.6-0.1-2.4-0.2
				c-0.5,0-1.1-0.1-1.6-0.1c-0.1,0-0.2,0-0.3,0c0.2-0.2,0.4-0.4,0.6-0.5c0.9-0.8,1.8-1.6,2.7-2.4c0.7-0.6,1.4-1.2,2.1-1.8
				c0.1-0.1,0.3-0.3,0.5-0.4c0,0.6-0.1,1.2-0.1,1.8c0,0.6-0.1,1.2-0.1,1.8C803.4,1034.1,803.3,1034.7,803.3,1035.3z"/>
			<path d="M791.4,1045.8c-0.3,0-0.6,0-1-0.1c-0.6,0-1.1-0.1-1.7-0.1c-0.8-0.1-1.5-0.1-2.3-0.2c-0.2,0-0.4,0-0.7,0
				c0.2-0.2,0.5-0.4,0.7-0.6c1.1-1,2.3-2,3.4-3c0.6-0.5,1.2-1,1.7-1.5c0,0,0,0,0,0c0,0.2,0,0.4,0,0.7c0,0.5-0.1,1.1-0.1,1.6
				c-0.1,0.8-0.1,1.5-0.2,2.3C791.4,1045.1,791.4,1045.4,791.4,1045.8C791.4,1045.7,791.4,1045.8,791.4,1045.8z"/>
		</g>
	</g>
</g>
</svg>
